ply
format ascii 1.0
comment Created by Blender 2.91.2 - www.blender.org
element vertex 484
property float x
property float y
property float z
property uchar red
property uchar green
property uchar blue
property uchar alpha
element face 405
property list uchar uint vertex_indices
end_header
-0.400000 0.534312 -0.600758 252 255 42 255
-0.400000 0.534312 -0.800000 252 255 0 255
-0.800000 0.534312 -0.800000 252 255 2 255
-0.800000 0.534312 -0.600758 252 255 0 255
0.400000 0.534312 -0.800000 252 255 0 255
0.800000 0.534312 -0.800000 252 255 2 255
0.800000 -0.251254 -0.800000 252 255 0 255
-0.400000 0.534312 0.800000 252 255 0 255
-0.800000 0.534312 0.800000 252 255 2 255
-0.800000 -0.251254 0.800000 252 255 2 255
0.800000 0.534312 0.400000 252 255 0 255
0.800000 0.534312 0.800000 252 255 2 255
0.800000 -0.251254 0.800000 252 255 0 255
0.800000 -0.800000 0.000000 253 255 19 255
0.800000 -0.251254 0.000000 252 255 1 255
0.800000 -0.800000 0.800000 252 255 8 255
0.800000 -0.800000 -0.800000 252 255 8 255
0.800000 0.534312 -0.400000 252 255 0 255
0.800000 0.534312 0.000000 252 255 0 255
0.000000 -0.800000 0.800000 252 255 35 255
0.000000 -0.251254 0.800000 252 255 1 255
-0.800000 -0.800000 0.800000 252 255 4 255
0.400000 0.534312 0.800000 252 255 0 255
0.000000 0.534312 0.800000 252 255 0 255
0.000000 -0.800000 0.000000 252 255 0 255
0.000000 -0.800000 -0.800000 252 255 35 255
0.000000 -0.251254 -0.800000 252 255 1 255
-0.800000 -0.800000 -0.800000 252 255 4 255
-0.800000 -0.251254 -0.800000 252 255 2 255
0.000000 0.534312 -0.800000 252 255 0 255
0.532071 0.534312 -0.600758 252 255 4 255
0.532071 0.534312 0.000000 252 255 6 255
0.532071 0.534312 0.600758 252 255 4 255
-0.400000 0.534312 0.600758 252 255 42 255
-0.800000 0.534312 0.600758 252 255 0 255
0.000000 0.534312 0.600758 252 255 3 255
-0.400000 -0.250699 0.600758 252 255 5 255
-0.800000 -0.250699 0.600758 252 255 41 255
0.000000 0.534312 -0.600758 252 255 3 255
-0.400000 -0.250699 0.000000 252 255 0 255
-0.800000 -0.250699 0.000000 252 255 4 255
0.400000 -0.250699 0.600758 252 255 4 255
0.400000 -0.250699 0.000000 252 255 4 255
0.000000 -0.250699 0.000000 252 255 0 255
0.000000 -0.250699 0.600758 252 255 0 255
0.400000 -0.250699 -0.600758 252 255 4 255
0.000000 -0.250699 -0.600758 252 255 0 255
-0.400000 -0.250699 -0.600758 252 255 5 255
-0.800000 -0.251254 -0.600758 252 255 10 255
-0.800000 -0.251254 0.600758 252 255 4 255
-0.800000 -0.250699 -0.600758 252 255 42 255
-0.800000 -0.800000 0.000000 252 255 4 255
0.400000 0.534312 0.600758 252 255 4 255
0.400000 0.424041 0.600758 252 255 4 255
0.400000 0.424041 0.000000 252 255 4 255
-0.800000 -0.800000 -0.800000 252 255 6 255
-0.800000 -0.800000 0.000000 252 255 12 255
-0.800000 -0.250699 0.000000 252 255 8 255
-0.800000 -0.250699 -0.600758 255 255 255 255
0.532071 0.534312 0.600758 252 255 10 255
0.532071 0.534312 0.000000 127 125 127 255
0.400000 0.424041 -0.600758 127 125 127 255
0.400000 0.424041 0.000000 127 125 127 255
0.400000 0.424041 0.600758 127 125 127 255
0.532071 0.534312 0.600758 127 125 127 255
0.532071 0.534312 -0.600758 127 125 127 255
0.400000 0.424041 -0.600758 252 255 4 255
0.400000 0.534312 -0.600758 252 255 4 255
0.000000 0.534312 0.600758 252 255 3 255
0.400000 -0.250699 0.600758 252 255 4 255
0.000000 -0.250699 0.600758 252 255 0 255
-0.640000 -0.080000 0.840000 255 255 255 255
-0.640000 -0.480000 0.840000 255 255 255 255
-0.640000 -0.480000 0.840000 255 255 255 255
-0.640000 -0.080000 0.840000 255 255 255 255
0.913327 -0.633073 0.840000 134 79 0 255
0.696849 -0.849552 0.840000 134 79 5 255
0.943775 -0.480000 0.840000 134 79 0 255
0.543775 -0.080000 0.840000 0 0 0 255
-0.640000 -0.080000 0.840000 0 0 0 255
-0.640000 -0.080000 0.970018 0 0 0 255
0.543775 -0.080000 0.970018 0 0 0 255
-0.793073 -0.110448 0.840000 0 0 0 255
-0.862228 -0.147412 0.840000 0 0 0 255
-0.862228 -0.147412 0.970018 0 0 0 255
-0.793073 -0.110448 0.970018 0 0 0 255
0.913327 -0.326927 0.840000 17 17 17 255
0.876363 -0.257772 0.840000 0 0 0 255
0.876363 -0.257772 0.970018 20 20 20 255
0.913327 -0.326927 0.970018 78 78 78 255
-0.718036 -0.872314 0.840000 0 0 0 255
-0.640000 -0.880000 0.840000 0 0 0 255
-0.640000 -0.880000 0.970018 0 0 0 255
-0.718036 -0.872314 0.970018 0 0 0 255
0.936090 -0.558036 0.840000 138 138 138 255
0.943775 -0.480000 0.840000 250 250 250 255
0.943775 -0.480000 0.970018 245 245 245 255
0.936090 -0.558036 0.970018 97 97 97 255
-1.040000 -0.480000 0.840000 248 248 248 255
-1.032314 -0.558036 0.840000 104 104 104 255
-1.032314 -0.558036 0.970018 136 136 136 255
-1.040000 -0.480000 0.970018 250 250 250 255
0.543776 -0.880000 0.840000 17 17 17 255
0.621812 -0.872314 0.840000 20 20 20 255
0.621812 -0.872314 0.970018 0 0 0 255
0.543776 -0.880000 0.970018 0 0 0 255
-0.718036 -0.087686 0.840000 0 0 0 255
-0.718036 -0.087686 0.970018 0 0 0 255
0.936090 -0.401964 0.840000 52 52 52 255
0.936090 -0.401964 0.970018 99 99 99 255
0.876364 -0.702228 0.840000 134 79 1 255
-0.793073 -0.849552 0.840000 0 0 0 255
-0.793073 -0.849552 0.970018 0 0 0 255
0.913327 -0.633073 0.840000 26 26 26 255
0.913327 -0.633073 0.970018 6 6 6 255
-1.032314 -0.401964 0.840000 5 5 5 255
-1.040000 -0.480000 0.840000 87 87 87 255
-1.040000 -0.480000 0.970018 141 141 141 255
-1.032314 -0.401964 0.970018 44 44 44 255
0.936090 -0.558036 0.840000 255 255 255 255
0.913327 -0.633073 0.840000 255 255 255 255
0.943775 -0.480000 0.840000 255 255 255 255
-0.640000 -0.080000 0.840000 0 0 0 255
-0.640000 -0.080000 0.970018 0 0 0 255
-0.640000 -0.880000 0.840000 255 255 255 255
-0.640000 -0.880000 0.840000 255 255 255 255
0.621812 -0.087686 0.840000 0 0 0 255
0.621812 -0.087686 0.970018 0 0 0 255
-0.862228 -0.812588 0.840000 0 0 0 255
-0.862228 -0.812588 0.970018 0 0 0 255
0.876364 -0.702228 0.840000 12 12 12 255
0.876364 -0.702228 0.970018 0 0 0 255
0.876363 -0.257772 0.840000 134 79 0 255
0.936090 -0.401964 0.840000 134 79 0 255
0.943775 -0.480000 0.840000 158 158 158 255
0.943775 -0.480000 0.970018 191 191 191 255
-0.640000 -0.880000 0.840000 0 0 0 255
-0.640000 -0.880000 0.970018 0 0 0 255
-1.009552 -0.326927 0.840000 7 7 7 255
-1.009552 -0.326927 0.970018 29 29 29 255
0.696849 -0.110448 0.840000 0 0 0 255
0.696849 -0.110448 0.970018 0 0 0 255
-0.922843 -0.762843 0.840000 0 0 0 255
-0.922843 -0.762843 0.970018 1 1 1 255
0.826619 -0.762842 0.840000 9 9 9 255
0.826619 -0.762842 0.970018 0 0 0 255
-0.972588 -0.257772 0.840000 1 1 1 255
-0.972588 -0.257772 0.970018 9 9 9 255
0.766003 -0.147412 0.840000 0 0 0 255
0.766003 -0.147412 0.970018 0 0 0 255
-0.972588 -0.702228 0.840000 0 0 0 255
-0.972588 -0.702228 0.970018 2 2 2 255
0.766004 -0.812588 0.840000 11 11 11 255
0.766004 -0.812588 0.970018 0 0 0 255
-0.922843 -0.197157 0.840000 0 0 0 255
-0.922843 -0.197157 0.970018 3 3 3 255
0.826618 -0.197157 0.840000 0 0 0 255
0.826618 -0.197157 0.970018 0 0 0 255
-1.009552 -0.633074 0.840000 2 2 2 255
-1.009552 -0.633074 0.970018 11 11 11 255
0.696849 -0.849552 0.840000 16 16 16 255
0.696849 -0.849552 0.970018 0 0 0 255
-0.640000 -0.480000 0.970018 167 119 0 255
-0.640000 -0.080000 0.970018 167 119 0 255
-0.718036 -0.087686 0.970018 167 119 0 255
-0.793073 -0.110448 0.970018 167 119 0 255
-0.862228 -0.147412 0.970018 167 119 0 255
-0.922843 -0.197157 0.970018 167 119 0 255
-0.972588 -0.257772 0.970018 167 119 0 255
-1.009552 -0.326927 0.970018 167 119 0 255
-1.032314 -0.401964 0.970018 167 119 0 255
-1.040000 -0.480000 0.970018 167 119 0 255
-1.032314 -0.558036 0.970018 167 119 0 255
-1.009552 -0.633074 0.970018 167 119 0 255
-0.972588 -0.702228 0.970018 167 119 0 255
-0.922843 -0.762843 0.970018 167 119 5 255
-0.862228 -0.812588 0.970018 168 121 27 255
-0.793073 -0.849552 0.970018 171 127 48 255
-0.718036 -0.872314 0.970018 170 124 41 255
-0.640000 -0.880000 0.970018 168 120 19 255
0.936090 -0.558036 0.970018 167 119 0 255
0.943775 -0.480000 0.970018 167 119 8 255
0.543775 -0.480000 0.970018 167 119 5 255
0.621812 -0.087686 0.970018 167 119 0 255
0.543775 -0.080000 0.970018 167 119 0 255
0.936090 -0.401964 0.970018 167 119 11 255
0.543776 -0.880000 0.970018 169 122 33 255
0.621812 -0.872314 0.970018 170 123 33 255
0.696849 -0.110448 0.970018 167 119 0 255
0.696849 -0.849552 0.970018 168 121 26 255
0.766003 -0.147412 0.970018 167 119 1 255
0.766004 -0.812588 0.970018 167 120 16 255
0.826618 -0.197157 0.970018 167 119 4 255
0.826619 -0.762842 0.970018 167 119 8 255
0.876363 -0.257772 0.970018 167 120 14 255
0.876364 -0.702228 0.970018 167 119 3 255
0.913327 -0.326927 0.970018 167 120 10 255
0.913327 -0.633073 0.970018 167 119 1 255
-0.640000 -0.880000 0.970018 168 120 19 255
-0.640000 -0.480000 0.970018 167 119 0 255
-0.640000 -0.080000 0.970018 167 119 0 255
0.826619 -0.762842 0.840000 134 79 1 255
0.766004 -0.812588 0.840000 138 85 33 255
0.621812 -0.087686 0.840000 134 79 0 255
0.696849 -0.110448 0.840000 134 79 0 255
0.766003 -0.147412 0.840000 134 79 0 255
0.826618 -0.197157 0.840000 255 255 255 255
0.876363 -0.257772 0.840000 255 255 255 255
0.766003 -0.147412 0.840000 255 255 255 255
0.621812 -0.872314 0.840000 134 79 1 255
0.543776 -0.880000 0.840000 134 79 0 255
0.913327 -0.326927 0.840000 134 79 0 255
0.543775 -0.080000 0.840000 134 79 0 255
-0.640000 -0.880000 0.840000 134 79 1 255
-0.640000 -0.480000 0.840000 134 79 0 255
-0.793073 -0.849552 0.840000 134 79 0 255
-0.862228 -0.812588 0.840000 134 79 0 255
-0.718036 -0.872314 0.840000 255 255 255 255
-0.718036 -0.872314 0.840000 134 79 0 255
-0.640000 -0.480000 0.840000 134 79 0 255
-0.640000 -0.880000 0.840000 134 79 1 255
-0.718036 -0.087686 0.840000 134 79 0 255
-0.640000 -0.080000 0.840000 134 79 0 255
-0.793073 -0.110448 0.840000 134 79 0 255
-0.922843 -0.762843 0.840000 134 79 0 255
-0.862228 -0.147412 0.840000 134 79 0 255
-0.972588 -0.702228 0.840000 134 79 0 255
-0.922843 -0.197157 0.840000 134 79 0 255
-1.009552 -0.633074 0.840000 134 79 3 255
-0.972588 -0.257772 0.840000 134 79 1 255
-1.032314 -0.558036 0.840000 134 79 1 255
-1.009552 -0.326927 0.840000 134 80 7 255
-1.040000 -0.480000 0.840000 134 79 3 255
-1.032314 -0.401964 0.840000 134 79 7 255
-0.640000 -0.080000 -0.840000 255 255 255 255
-0.640000 -0.080000 -0.840000 255 255 255 255
-0.640000 -0.480000 -0.840000 255 255 255 255
-0.640000 -0.480000 -0.840000 255 255 255 255
0.913327 -0.633073 -0.840000 134 79 0 255
0.943775 -0.480000 -0.840000 134 79 0 255
0.696849 -0.849552 -0.840000 134 79 5 255
0.543775 -0.080000 -0.840000 0 0 0 255
0.543775 -0.080000 -0.970018 0 0 0 255
-0.640000 -0.080000 -0.970018 0 0 0 255
-0.640000 -0.080000 -0.840000 0 0 0 255
-0.793073 -0.110448 -0.840000 0 0 0 255
-0.793073 -0.110448 -0.970018 0 0 0 255
-0.862228 -0.147412 -0.970018 0 0 0 255
-0.862228 -0.147412 -0.840000 0 0 0 255
0.913327 -0.326927 -0.840000 17 17 17 255
0.913327 -0.326927 -0.970018 78 78 78 255
0.876363 -0.257772 -0.970018 20 20 20 255
0.876363 -0.257772 -0.840000 0 0 0 255
-0.718036 -0.872314 -0.840000 0 0 0 255
-0.718036 -0.872314 -0.970018 0 0 0 255
-0.640000 -0.880000 -0.970018 0 0 0 255
-0.640000 -0.880000 -0.840000 0 0 0 255
0.936090 -0.558035 -0.840000 138 138 138 255
0.936090 -0.558035 -0.970018 97 97 97 255
0.943775 -0.480000 -0.970018 245 245 245 255
0.943775 -0.480000 -0.840000 250 250 250 255
-1.040000 -0.480000 -0.840000 248 248 248 255
-1.040000 -0.480000 -0.970018 250 250 250 255
-1.032314 -0.558036 -0.970018 136 136 136 255
-1.032314 -0.558036 -0.840000 104 104 104 255
0.543776 -0.880000 -0.840000 17 17 17 255
0.543776 -0.880000 -0.970018 0 0 0 255
0.621812 -0.872314 -0.970018 0 0 0 255
0.621812 -0.872314 -0.840000 20 20 20 255
-0.718036 -0.087686 -0.840000 0 0 0 255
-0.718036 -0.087686 -0.970018 0 0 0 255
0.936090 -0.401964 -0.840000 52 52 52 255
0.936090 -0.401964 -0.970018 99 99 99 255
0.876364 -0.702228 -0.840000 134 79 1 255
-0.793073 -0.849552 -0.840000 0 0 0 255
-0.793073 -0.849552 -0.970018 0 0 0 255
0.913327 -0.633073 -0.840000 26 26 26 255
0.913327 -0.633073 -0.970018 6 6 6 255
-1.032314 -0.401964 -0.840000 5 5 5 255
-1.032314 -0.401964 -0.970018 44 44 44 255
-1.040000 -0.480000 -0.970018 141 141 141 255
-1.040000 -0.480000 -0.840000 87 87 87 255
0.936090 -0.558035 -0.840000 255 255 255 255
0.943775 -0.480000 -0.840000 255 255 255 255
0.913327 -0.633073 -0.840000 255 255 255 255
-0.640000 -0.080000 -0.840000 0 0 0 255
-0.640000 -0.080000 -0.970018 0 0 0 255
-0.640000 -0.880000 -0.840000 255 255 255 255
-0.640000 -0.880000 -0.840000 255 255 255 255
0.621812 -0.087686 -0.840000 0 0 0 255
0.621812 -0.087686 -0.970018 0 0 0 255
-0.862228 -0.812588 -0.840000 0 0 0 255
-0.862228 -0.812588 -0.970018 0 0 0 255
0.876364 -0.702228 -0.840000 12 12 12 255
0.876364 -0.702228 -0.970018 0 0 0 255
0.936090 -0.401964 -0.840000 134 79 0 255
0.876363 -0.257772 -0.840000 134 79 0 255
0.943775 -0.480000 -0.840000 158 158 158 255
0.943775 -0.480000 -0.970018 191 191 191 255
-0.640000 -0.880000 -0.840000 0 0 0 255
-0.640000 -0.880000 -0.970018 0 0 0 255
-1.009552 -0.326927 -0.840000 7 7 7 255
-1.009552 -0.326927 -0.970018 29 29 29 255
0.696849 -0.110448 -0.840000 0 0 0 255
0.696849 -0.110448 -0.970018 0 0 0 255
-0.922843 -0.762843 -0.840000 0 0 0 255
-0.922843 -0.762843 -0.970018 1 1 1 255
0.826619 -0.762842 -0.840000 9 9 9 255
0.826619 -0.762842 -0.970018 0 0 0 255
-0.972588 -0.257772 -0.840000 1 1 1 255
-0.972588 -0.257772 -0.970018 9 9 9 255
0.766003 -0.147412 -0.840000 0 0 0 255
0.766003 -0.147412 -0.970018 0 0 0 255
-0.972588 -0.702228 -0.840000 0 0 0 255
-0.972588 -0.702228 -0.970018 2 2 2 255
0.766004 -0.812588 -0.840000 11 11 11 255
0.766004 -0.812588 -0.970018 0 0 0 255
-0.922843 -0.197157 -0.840000 0 0 0 255
-0.922843 -0.197157 -0.970018 3 3 3 255
0.826618 -0.197157 -0.840000 0 0 0 255
0.826618 -0.197157 -0.970018 0 0 0 255
-1.009552 -0.633074 -0.840000 2 2 2 255
-1.009552 -0.633074 -0.970018 11 11 11 255
0.696849 -0.849552 -0.840000 16 16 16 255
0.696849 -0.849552 -0.970018 0 0 0 255
-0.640000 -0.480000 -0.970018 167 119 0 255
-0.718036 -0.087686 -0.970018 167 119 0 255
-0.640000 -0.080000 -0.970018 167 119 0 255
-0.793073 -0.110448 -0.970018 167 119 0 255
-0.862228 -0.147412 -0.970018 167 119 0 255
-0.922843 -0.197157 -0.970018 167 119 0 255
-0.972588 -0.257772 -0.970018 167 119 0 255
-1.009552 -0.326927 -0.970018 167 119 0 255
-1.032314 -0.401964 -0.970018 167 119 0 255
-1.040000 -0.480000 -0.970018 167 119 0 255
-1.032314 -0.558036 -0.970018 167 119 0 255
-1.009552 -0.633074 -0.970018 167 119 0 255
-0.972588 -0.702228 -0.970018 167 119 0 255
-0.922843 -0.762843 -0.970018 167 119 5 255
-0.862228 -0.812588 -0.970018 168 121 27 255
-0.793073 -0.849552 -0.970018 171 127 48 255
-0.718036 -0.872314 -0.970018 170 124 41 255
-0.640000 -0.880000 -0.970018 168 120 19 255
0.936090 -0.558035 -0.970018 167 119 0 255
0.543775 -0.480000 -0.970018 167 119 5 255
0.943775 -0.480000 -0.970018 167 119 8 255
0.543775 -0.080000 -0.970018 167 119 0 255
0.621812 -0.087686 -0.970018 167 119 0 255
0.936090 -0.401964 -0.970018 167 119 11 255
0.543776 -0.880000 -0.970018 169 122 33 255
0.621812 -0.872314 -0.970018 170 123 33 255
0.696849 -0.110448 -0.970018 167 119 0 255
0.696849 -0.849552 -0.970018 168 121 26 255
0.766003 -0.147412 -0.970018 167 119 1 255
0.766004 -0.812588 -0.970018 167 120 16 255
0.826618 -0.197157 -0.970018 167 119 4 255
0.826619 -0.762842 -0.970018 167 119 8 255
0.876363 -0.257772 -0.970018 167 120 14 255
0.876364 -0.702228 -0.970018 167 119 3 255
0.913327 -0.326927 -0.970018 167 120 10 255
0.913327 -0.633073 -0.970018 167 119 1 255
-0.640000 -0.880000 -0.970018 168 120 19 255
-0.640000 -0.480000 -0.970018 167 119 0 255
-0.640000 -0.080000 -0.970018 167 119 0 255
0.826619 -0.762842 -0.840000 134 79 1 255
0.766004 -0.812588 -0.840000 138 85 33 255
0.621812 -0.087686 -0.840000 134 79 0 255
0.766003 -0.147412 -0.840000 134 79 0 255
0.696849 -0.110448 -0.840000 134 79 0 255
0.826618 -0.197157 -0.840000 255 255 255 255
0.766003 -0.147412 -0.840000 255 255 255 255
0.876363 -0.257772 -0.840000 255 255 255 255
0.621812 -0.872314 -0.840000 134 79 1 255
0.543776 -0.880000 -0.840000 134 79 0 255
0.913327 -0.326927 -0.840000 134 79 0 255
0.543775 -0.080000 -0.840000 134 79 0 255
-0.640000 -0.880000 -0.840000 134 79 1 255
-0.640000 -0.480000 -0.840000 134 79 0 255
-0.862228 -0.812588 -0.840000 134 79 0 255
-0.793073 -0.849552 -0.840000 134 79 0 255
-0.718036 -0.872314 -0.840000 255 255 255 255
-0.718036 -0.872314 -0.840000 134 79 0 255
-0.640000 -0.880000 -0.840000 134 79 1 255
-0.640000 -0.480000 -0.840000 134 79 0 255
-0.640000 -0.080000 -0.840000 134 79 0 255
-0.718036 -0.087686 -0.840000 134 79 0 255
-0.793073 -0.110448 -0.840000 134 79 0 255
-0.922843 -0.762843 -0.840000 134 79 0 255
-0.862228 -0.147412 -0.840000 134 79 0 255
-0.972588 -0.702228 -0.840000 134 79 0 255
-0.922843 -0.197157 -0.840000 134 79 0 255
-1.009552 -0.633074 -0.840000 134 79 3 255
-0.972588 -0.257772 -0.840000 134 79 1 255
-1.032314 -0.558036 -0.840000 134 79 1 255
-1.009552 -0.326927 -0.840000 134 80 7 255
-1.040000 -0.480000 -0.840000 134 79 3 255
-1.032314 -0.401964 -0.840000 134 79 7 255
1.170300 -0.751477 -0.000000 151 148 151 255
1.123868 -0.702464 -0.000000 151 148 151 255
1.123868 -0.702464 0.789293 151 148 151 255
1.170300 -0.751477 0.789293 151 148 151 255
0.963698 -0.052960 0.000000 151 148 151 255
0.963698 -0.052960 0.789293 151 148 151 255
0.993035 0.012259 0.789293 151 148 151 255
0.993035 0.012259 0.000000 151 148 151 255
1.219874 -0.784674 -0.000000 151 148 151 255
1.219874 -0.784674 0.789293 154 153 154 255
1.029906 0.063945 0.789293 148 145 148 255
1.029906 0.063945 0.000000 151 148 151 255
1.092878 0.063945 0.000000 151 148 151 255
1.029906 0.063945 0.000000 153 151 153 255
1.092878 0.063945 0.789293 182 181 182 255
1.092878 0.063945 0.000000 254 254 254 255
1.056007 0.012259 0.789293 152 149 152 255
1.056007 0.012259 0.000000 189 187 189 255
1.156902 -0.784674 -0.000000 151 148 151 255
1.156902 -0.784674 0.789293 151 148 151 255
1.107328 -0.751477 0.789293 151 148 151 255
1.107328 -0.751477 -0.000000 151 148 151 255
1.060896 -0.702464 0.789293 151 148 151 255
1.060896 -0.702464 -0.000000 150 147 150 255
1.019390 -0.639518 0.789293 151 148 151 255
1.019390 -0.639518 -0.000000 150 147 150 255
1.005994 -0.129206 0.000000 151 148 151 255
1.005994 -0.129206 0.789293 151 148 151 255
0.994773 -0.213549 0.789293 151 148 151 255
0.994773 -0.213549 0.000000 153 150 153 255
0.993440 -0.302747 0.789293 151 148 151 255
0.993440 -0.302747 0.000000 193 192 193 255
1.002045 -0.393374 0.789293 151 148 151 255
1.002045 -0.393374 -0.000000 169 167 169 255
1.026670 -0.052960 0.000000 151 148 151 255
1.056007 0.012259 0.000000 151 148 151 255
1.026670 -0.052960 0.789293 151 148 151 255
0.957285 -0.481945 -0.000000 132 130 132 255
0.957285 -0.481945 0.789293 151 148 151 255
0.939073 -0.393374 0.789293 151 148 151 255
0.939073 -0.393374 -0.000000 127 125 127 255
1.024640 -0.477142 0.789293 151 148 151 255
1.020257 -0.481945 -0.000000 183 181 183 255
0.984405 -0.565058 0.789293 151 148 151 255
0.984405 -0.565058 -0.000000 145 142 145 255
0.930468 -0.302747 0.789293 151 148 151 255
0.930468 -0.302747 0.000000 135 132 135 255
1.047377 -0.565058 0.789293 151 148 151 255
1.047377 -0.565058 -0.000000 152 149 152 255
1.082362 -0.639518 0.789293 151 148 151 255
1.082362 -0.639518 -0.000000 151 148 151 255
0.943022 -0.129206 0.000000 151 148 151 255
0.943022 -0.129206 0.789293 151 148 151 255
0.931801 -0.213549 0.789293 151 148 151 255
0.931801 -0.213549 0.000000 148 145 148 255
0.943022 -0.129206 0.000000 150 147 150 255
1.020257 -0.481945 0.789293 151 148 151 255
1.170300 -0.751477 -0.000000 157 155 157 255
1.026670 -0.052960 0.000000 153 150 153 255
1.219874 -0.784674 -0.000000 219 218 219 255
1.170300 -0.751477 -0.789293 151 148 151 255
1.123868 -0.702464 -0.789293 151 148 151 255
0.993035 0.012259 -0.789293 151 148 151 255
0.963698 -0.052960 -0.789293 151 148 151 255
1.219874 -0.784674 -0.789293 154 153 154 255
1.029906 0.063945 -0.789293 148 145 148 255
1.092878 0.063945 -0.789293 182 181 182 255
1.056007 0.012259 -0.789293 152 149 152 255
1.107328 -0.751477 -0.789293 151 148 151 255
1.156902 -0.784674 -0.789293 151 148 151 255
1.060896 -0.702464 -0.789293 151 148 151 255
1.019390 -0.639518 -0.789293 151 148 151 255
0.994773 -0.213549 -0.789293 151 148 151 255
1.005994 -0.129206 -0.789293 151 148 151 255
0.993440 -0.302747 -0.789293 151 148 151 255
1.002045 -0.393374 -0.789293 151 148 151 255
1.026670 -0.052960 -0.789293 151 148 151 255
0.939073 -0.393374 -0.789293 151 148 151 255
0.957285 -0.481945 -0.789293 151 148 151 255
1.024640 -0.477142 -0.789293 151 148 151 255
0.984405 -0.565058 -0.789293 151 148 151 255
0.930468 -0.302747 -0.789293 151 148 151 255
1.047377 -0.565058 -0.789293 151 148 151 255
1.082362 -0.639518 -0.789293 151 148 151 255
0.943022 -0.129206 -0.789293 151 148 151 255
0.931801 -0.213549 -0.789293 151 148 151 255
1.020257 -0.481945 -0.789293 151 148 151 255
4 0 1 2 3
3 4 5 6
3 7 8 9
3 10 11 12
4 13 14 12 15
4 16 6 14 13
3 17 18 14
4 19 20 9 21
4 15 12 20 19
3 22 23 20
4 16 13 24 25
4 13 15 19 24
4 25 26 6 16
4 27 28 26 25
3 1 29 26
4 18 17 30 31
4 17 5 4 30
4 11 10 32 22
4 10 18 31 32
4 7 33 34 8
4 23 35 33 7
4 34 33 36 37
4 38 29 1 0
4 36 39 40 37
4 41 42 43 44
4 42 45 46 43
4 44 43 39 36
4 43 46 47 39
4 33 35 44 36
4 38 0 47 46
4 2 28 48 3
4 49 9 8 34
3 50 0 3
4 24 19 21 51
4 25 24 51 27
4 40 39 47 50
3 21 9 49
3 6 26 4
3 26 29 4
3 9 20 7
3 20 23 7
3 12 14 10
3 14 18 10
3 14 6 17
3 6 5 17
3 20 12 22
3 12 11 22
3 26 28 1
3 28 2 1
3 50 47 0
3 37 40 49
3 40 51 49
3 51 21 49
3 35 52 53
4 54 42 41 53
3 55 48 28
3 55 56 48
4 57 58 48 56
3 52 59 53
3 60 61 62
3 63 64 60
3 60 65 61
3 62 63 60
4 42 54 66 45
4 67 4 29 38
3 22 32 52
4 68 53 69 70
4 67 38 46 45
3 4 67 30
3 67 66 30
4 23 22 52 35
4 71 72 73 74
3 75 76 77
4 78 79 80 81
4 82 83 84 85
4 86 87 88 89
4 90 91 92 93
4 94 95 96 97
4 98 99 100 101
4 102 103 104 105
4 106 82 85 107
4 108 86 89 109
3 110 76 75
4 111 90 93 112
4 113 94 97 114
4 115 116 117 118
3 119 120 121
4 122 106 107 123
4 72 124 125 73
4 126 78 81 127
4 128 111 112 129
4 130 113 114 131
3 77 132 133
4 134 108 109 135
4 136 102 105 137
4 138 115 118 139
4 140 126 127 141
4 142 128 129 143
4 144 130 131 145
4 146 138 139 147
4 148 140 141 149
4 150 142 143 151
4 152 144 145 153
4 154 146 147 155
4 156 148 149 157
4 158 150 151 159
4 160 152 153 161
4 83 154 155 84
4 87 156 157 88
3 162 163 164
3 162 164 165
3 162 165 166
3 162 166 167
3 162 167 168
3 162 168 169
3 162 169 170
3 162 170 171
3 162 171 172
3 162 172 173
3 162 173 174
3 162 174 175
3 162 175 176
3 162 176 177
3 162 177 178
3 162 178 179
3 180 181 182
3 182 183 184
3 182 181 185
3 186 187 182
3 182 188 183
3 187 189 182
3 182 190 188
3 189 191 182
3 182 192 190
3 191 193 182
3 182 194 192
3 193 195 182
3 182 196 194
3 195 197 182
3 182 185 196
3 197 180 182
3 198 186 182
3 184 199 182
3 200 199 184
3 199 198 182
4 103 160 161 104
4 99 158 159 100
3 201 202 110
3 203 204 205
3 76 132 77
3 206 207 208
3 132 76 209
3 132 203 205
3 132 209 210
3 132 211 133
3 203 132 210
3 210 212 203
3 213 214 210
3 214 215 216
3 124 217 125
3 218 219 220
3 214 212 210
3 72 73 71
3 214 221 222
3 217 73 72
3 218 215 214
3 202 76 110
3 221 214 223
3 214 216 224
3 223 214 225
3 214 224 226
3 225 214 227
3 214 226 228
3 227 214 229
3 214 228 230
3 229 214 231
3 214 230 232
3 231 214 233
3 233 214 232
3 214 222 212
4 234 235 236 237
3 238 239 240
4 241 242 243 244
4 245 246 247 248
4 249 250 251 252
4 253 254 255 256
4 257 258 259 260
4 261 262 263 264
4 265 266 267 268
4 269 270 246 245
4 271 272 250 249
3 273 238 240
4 274 275 254 253
4 276 277 258 257
4 278 279 280 281
3 282 283 284
4 285 286 270 269
4 237 236 287 288
4 289 290 242 241
4 291 292 275 274
4 293 294 277 276
3 239 295 296
4 297 298 272 271
4 299 300 266 265
4 301 302 279 278
4 303 304 290 289
4 305 306 292 291
4 307 308 294 293
4 309 310 302 301
4 311 312 304 303
4 313 314 306 305
4 315 316 308 307
4 317 318 310 309
4 319 320 312 311
4 321 322 314 313
4 323 324 316 315
4 248 247 318 317
4 252 251 320 319
3 325 326 327
3 325 328 326
3 325 329 328
3 325 330 329
3 325 331 330
3 325 332 331
3 325 333 332
3 325 334 333
3 325 335 334
3 325 336 335
3 325 337 336
3 325 338 337
3 325 339 338
3 325 340 339
3 325 341 340
3 325 342 341
3 343 344 345
3 344 346 347
3 344 348 345
3 349 344 350
3 344 347 351
3 350 344 352
3 344 351 353
3 352 344 354
3 344 353 355
3 354 344 356
3 344 355 357
3 356 344 358
3 344 357 359
3 358 344 360
3 344 359 348
3 360 344 343
3 361 344 349
3 346 344 362
3 363 346 362
3 362 344 361
4 268 267 324 323
4 264 263 322 321
3 364 273 365
3 366 367 368
3 240 239 296
3 369 370 371
3 296 372 240
3 296 367 366
3 296 373 372
3 296 295 374
3 366 373 296
3 373 366 375
3 376 373 377
3 377 378 379
3 288 287 380
3 381 382 383
3 377 373 375
3 237 234 236
3 377 384 385
3 380 237 236
3 381 377 379
3 365 273 240
3 385 386 377
3 377 387 378
3 386 388 377
3 377 389 387
3 388 390 377
3 377 391 389
3 390 392 377
3 377 393 391
3 392 394 377
3 377 395 393
3 394 396 377
3 396 395 377
3 377 375 384
4 397 398 399 400
4 401 402 403 404
4 405 397 400 406
4 404 403 407 408
4 409 410 407 411
4 412 411 413 414
4 415 416 417 418
4 418 417 419 420
4 420 419 421 422
4 423 424 425 426
4 415 405 406 416
4 426 425 427 428
4 428 427 429 430
4 431 432 413 433
4 434 435 436 437
4 423 431 433 424
4 430 429 438 439
4 422 421 440 441
4 437 436 442 443
4 441 440 435 434
4 439 438 444 445
4 445 444 446 447
4 401 448 449 402
4 443 442 450 451
4 451 450 449 452
4 447 446 399 398
3 407 413 411
3 400 416 406
3 433 413 403
3 419 399 446
3 399 416 400
3 424 433 402
3 399 417 416
3 417 399 419
3 421 446 444
3 425 424 449
3 419 446 421
3 427 425 450
3 449 424 402
3 438 453 444
3 403 413 407
3 450 425 449
3 429 453 438
3 440 444 453
3 402 433 403
3 429 436 435
3 453 435 440
3 429 435 453
3 450 442 427
3 421 444 440
3 442 436 429
3 427 442 429
4 398 420 418 454
4 423 452 451 426
4 445 441 422 447
4 414 404 401 455
4 430 437 434 439
4 454 418 415 456
4 426 451 443 428
4 447 422 420 398
4 455 401 452 423
4 439 434 441 445
4 412 408 404 414
4 428 443 437 430
4 397 457 458 398
4 401 404 459 460
4 405 461 457 397
4 404 408 462 459
4 409 463 462 410
4 412 414 464 463
4 415 418 465 466
4 418 420 467 465
4 420 422 468 467
4 423 426 469 470
4 415 466 461 405
4 426 428 471 469
4 428 430 472 471
4 431 473 464 432
4 434 437 474 475
4 423 470 473 431
4 430 439 476 472
4 422 441 477 468
4 437 443 478 474
4 441 434 475 477
4 439 445 479 476
4 445 447 480 479
4 401 460 481 448
4 443 451 482 478
4 451 452 481 482
4 447 398 458 480
3 462 463 464
3 457 461 466
3 473 459 464
3 467 480 458
3 458 457 466
3 470 460 473
3 458 466 465
3 465 467 458
3 468 479 480
3 469 481 470
3 467 468 480
3 471 482 469
3 481 460 470
3 476 479 483
3 459 462 464
3 482 481 469
3 472 476 483
3 477 483 479
3 460 459 473
3 472 475 474
3 483 477 475
3 472 483 475
3 482 471 478
3 468 477 479
3 478 472 474
3 471 472 478
