ply
format ascii 1.0
comment Created by Blender 2.91.2 - www.blender.org
element vertex 527
property float x
property float y
property float z
property uchar red
property uchar green
property uchar blue
property uchar alpha
element face 532
property list uchar uint vertex_indices
end_header
-0.375000 0.500917 -0.563210 252 255 42 255
-0.375000 0.500917 -0.750000 252 255 0 255
-0.750000 0.500917 -0.750000 252 255 2 255
-0.750000 0.500917 -0.563210 252 255 0 255
0.375000 0.500917 -0.750000 252 255 0 255
0.750000 0.500917 -0.750000 252 255 2 255
0.750000 -0.235551 -0.750000 252 255 0 255
-0.375000 0.500917 0.750000 252 255 0 255
-0.750000 0.500917 0.750000 252 255 2 255
-0.750000 -0.235551 0.750000 252 255 2 255
0.750000 0.500917 0.375000 252 255 0 255
0.750000 0.500917 0.750000 252 255 2 255
0.750000 -0.235551 0.750000 252 255 0 255
0.750000 -0.750000 0.000000 253 255 19 255
0.750000 -0.235551 0.000000 252 255 1 255
0.750000 -0.750000 0.750000 252 255 8 255
0.750000 -0.750000 -0.750000 252 255 8 255
0.750000 0.500917 -0.375000 252 255 0 255
0.750000 0.500917 0.000000 252 255 0 255
0.000000 -0.750000 0.750000 252 255 35 255
0.000000 -0.235551 0.750000 252 255 1 255
-0.750000 -0.750000 0.750000 252 255 4 255
0.375000 0.500917 0.750000 252 255 0 255
0.000000 0.500917 0.750000 252 255 0 255
0.000000 -0.750000 0.000000 252 255 0 255
0.000000 -0.750000 -0.750000 252 255 35 255
0.000000 -0.235551 -0.750000 252 255 1 255
-0.750000 -0.750000 -0.750000 252 255 4 255
-0.750000 -0.235551 -0.750000 252 255 2 255
0.000000 0.500917 -0.750000 252 255 0 255
0.375000 0.500917 -0.563210 252 255 4 255
0.000000 0.500917 -0.563210 252 255 3 255
0.498817 0.500917 -0.563210 252 255 4 255
0.498817 0.500917 0.000000 252 255 6 255
0.498817 0.500917 0.563210 252 255 4 255
0.000000 0.500917 0.563210 252 255 3 255
-0.375000 0.500917 0.563210 252 255 42 255
-0.750000 0.500917 0.563210 252 255 0 255
-0.375000 -0.235030 0.563210 252 255 5 255
-0.750000 -0.235030 0.563210 252 255 41 255
0.375000 0.500917 0.563210 252 255 4 255
0.375000 -0.235030 0.563210 252 255 4 255
0.000000 -0.235030 0.563210 252 255 0 255
-0.375000 -0.235030 0.000000 252 255 0 255
-0.750000 -0.235030 0.000000 252 255 4 255
0.375000 -0.235030 0.000000 252 255 4 255
0.000000 -0.235030 0.000000 252 255 0 255
0.375000 -0.235030 -0.563210 252 255 4 255
0.000000 -0.235030 -0.563210 252 255 0 255
-0.375000 -0.235030 -0.563210 252 255 5 255
-0.750000 -0.235551 -0.563210 252 255 10 255
-0.750000 -0.235551 0.563210 252 255 4 255
-0.750000 -0.235030 -0.563210 252 255 42 255
-0.750000 -0.750000 0.000000 252 255 4 255
0.375000 0.397538 0.563210 252 255 4 255
0.375000 0.397538 0.000000 252 255 4 255
-0.750000 -0.750000 -0.750000 252 255 6 255
-0.750000 -0.750000 0.000000 252 255 12 255
-0.750000 -0.235030 0.000000 252 255 8 255
-0.750000 -0.235030 -0.563210 255 255 255 255
0.375000 0.500917 -0.563210 252 255 4 255
0.375000 0.397538 -0.563210 252 255 4 255
0.498817 0.500917 0.563210 252 255 10 255
0.498817 0.500917 0.000000 127 125 127 255
0.375000 0.397538 -0.563210 127 125 127 255
0.375000 0.397538 0.000000 127 125 127 255
0.375000 0.397538 0.563210 127 125 127 255
0.498817 0.500917 0.563210 127 125 127 255
0.498817 0.500917 -0.563210 127 125 127 255
-0.600000 -0.075000 0.787500 255 255 255 255
-0.600000 -0.450000 0.787500 255 255 255 255
-0.600000 -0.450000 0.787500 255 255 255 255
-0.600000 -0.075000 0.787500 255 255 255 255
0.856244 -0.593506 0.787500 134 79 0 255
0.653296 -0.796455 0.787500 134 79 5 255
0.884789 -0.450000 0.787500 134 79 0 255
0.509789 -0.075000 0.787500 0 0 0 255
-0.600000 -0.075000 0.787500 0 0 0 255
-0.600000 -0.075000 0.909392 0 0 0 255
0.509789 -0.075000 0.909392 0 0 0 255
-0.743506 -0.103545 0.787500 0 0 0 255
-0.808339 -0.138199 0.787500 0 0 0 255
-0.808339 -0.138199 0.909392 0 0 0 255
-0.743506 -0.103545 0.909392 0 0 0 255
0.856244 -0.306494 0.787500 17 17 17 255
0.821590 -0.241661 0.787500 0 0 0 255
0.821590 -0.241661 0.909392 20 20 20 255
0.856244 -0.306494 0.909392 78 78 78 255
-0.673159 -0.817795 0.787500 0 0 0 255
-0.600000 -0.825000 0.787500 0 0 0 255
-0.600000 -0.825000 0.909392 0 0 0 255
-0.673159 -0.817795 0.909392 0 0 0 255
0.877584 -0.523158 0.787500 138 138 138 255
0.884789 -0.450000 0.787500 250 250 250 255
0.884789 -0.450000 0.909392 245 245 245 255
0.877584 -0.523158 0.909392 97 97 97 255
-0.975000 -0.450000 0.787500 248 248 248 255
-0.967794 -0.523159 0.787500 104 104 104 255
-0.967794 -0.523159 0.909392 136 136 136 255
-0.975000 -0.450000 0.909392 250 250 250 255
0.509790 -0.825000 0.787500 17 17 17 255
0.582949 -0.817794 0.787500 20 20 20 255
0.582949 -0.817794 0.909392 0 0 0 255
0.509790 -0.825000 0.909392 0 0 0 255
-0.673159 -0.082206 0.787500 0 0 0 255
-0.673159 -0.082206 0.909392 0 0 0 255
0.877584 -0.376841 0.787500 52 52 52 255
0.877584 -0.376841 0.909392 99 99 99 255
0.821591 -0.658338 0.787500 134 79 1 255
-0.743506 -0.796455 0.787500 0 0 0 255
-0.743506 -0.796455 0.909392 0 0 0 255
0.856244 -0.593506 0.787500 26 26 26 255
0.856244 -0.593506 0.909392 6 6 6 255
-0.967794 -0.376841 0.787500 5 5 5 255
-0.975000 -0.450000 0.787500 87 87 87 255
-0.975000 -0.450000 0.909392 141 141 141 255
-0.967794 -0.376841 0.909392 44 44 44 255
0.877584 -0.523158 0.787500 255 255 255 255
0.856244 -0.593506 0.787500 255 255 255 255
0.884789 -0.450000 0.787500 255 255 255 255
-0.600000 -0.075000 0.787500 0 0 0 255
-0.600000 -0.075000 0.909392 0 0 0 255
-0.600000 -0.825000 0.787500 255 255 255 255
-0.600000 -0.825000 0.787500 255 255 255 255
0.582948 -0.082206 0.787500 0 0 0 255
0.582948 -0.082206 0.909392 0 0 0 255
-0.808339 -0.761801 0.787500 0 0 0 255
-0.808339 -0.761801 0.909392 0 0 0 255
0.821591 -0.658338 0.787500 12 12 12 255
0.821591 -0.658338 0.909392 0 0 0 255
0.821590 -0.241661 0.787500 134 79 0 255
0.877584 -0.376841 0.787500 134 79 0 255
0.884789 -0.450000 0.787500 158 158 158 255
0.884789 -0.450000 0.909392 191 191 191 255
-0.600000 -0.825000 0.787500 0 0 0 255
-0.600000 -0.825000 0.909392 0 0 0 255
-0.946455 -0.306494 0.787500 7 7 7 255
-0.946455 -0.306494 0.909392 29 29 29 255
0.653296 -0.103545 0.787500 0 0 0 255
0.653296 -0.103545 0.909392 0 0 0 255
-0.865165 -0.715165 0.787500 0 0 0 255
-0.865165 -0.715165 0.909392 1 1 1 255
0.774955 -0.715165 0.787500 9 9 9 255
0.774955 -0.715165 0.909392 0 0 0 255
-0.911801 -0.241661 0.787500 1 1 1 255
-0.911801 -0.241661 0.909392 9 9 9 255
0.718128 -0.138199 0.787500 0 0 0 255
0.718128 -0.138199 0.909392 0 0 0 255
-0.911801 -0.658339 0.787500 0 0 0 255
-0.911801 -0.658339 0.909392 2 2 2 255
0.718129 -0.761801 0.787500 11 11 11 255
0.718129 -0.761801 0.909392 0 0 0 255
-0.865165 -0.184835 0.787500 0 0 0 255
-0.865165 -0.184835 0.909392 3 3 3 255
0.774955 -0.184835 0.787500 0 0 0 255
0.774955 -0.184835 0.909392 0 0 0 255
-0.946455 -0.593506 0.787500 2 2 2 255
-0.946455 -0.593506 0.909392 11 11 11 255
0.653296 -0.796455 0.787500 16 16 16 255
0.653296 -0.796455 0.909392 0 0 0 255
-0.600000 -0.450000 0.909392 167 119 0 255
-0.600000 -0.075000 0.909392 167 119 0 255
-0.673159 -0.082206 0.909392 167 119 0 255
-0.743506 -0.103545 0.909392 167 119 0 255
-0.808339 -0.138199 0.909392 167 119 0 255
-0.865165 -0.184835 0.909392 167 119 0 255
-0.911801 -0.241661 0.909392 167 119 0 255
-0.946455 -0.306494 0.909392 167 119 0 255
-0.967794 -0.376841 0.909392 167 119 0 255
-0.975000 -0.450000 0.909392 167 119 0 255
-0.967794 -0.523159 0.909392 167 119 0 255
-0.946455 -0.593506 0.909392 167 119 0 255
-0.911801 -0.658339 0.909392 167 119 0 255
-0.865165 -0.715165 0.909392 167 119 5 255
-0.808339 -0.761801 0.909392 168 121 27 255
-0.743506 -0.796455 0.909392 171 127 48 255
-0.673159 -0.817795 0.909392 170 124 41 255
-0.600000 -0.825000 0.909392 168 120 19 255
0.877584 -0.523158 0.909392 167 119 0 255
0.884789 -0.450000 0.909392 167 119 8 255
0.509789 -0.450000 0.909392 167 119 5 255
0.582948 -0.082206 0.909392 167 119 0 255
0.509789 -0.075000 0.909392 167 119 0 255
0.877584 -0.376841 0.909392 167 119 11 255
0.509790 -0.825000 0.909392 169 122 33 255
0.582949 -0.817794 0.909392 170 123 33 255
0.653296 -0.103545 0.909392 167 119 0 255
0.653296 -0.796455 0.909392 168 121 26 255
0.718128 -0.138199 0.909392 167 119 1 255
0.718129 -0.761801 0.909392 167 120 16 255
0.774955 -0.184835 0.909392 167 119 4 255
0.774955 -0.715165 0.909392 167 119 8 255
0.821590 -0.241661 0.909392 167 120 14 255
0.821591 -0.658338 0.909392 167 119 3 255
0.856244 -0.306494 0.909392 167 120 10 255
0.856244 -0.593506 0.909392 167 119 1 255
-0.600000 -0.825000 0.909392 168 120 19 255
-0.600000 -0.450000 0.909392 167 119 0 255
-0.600000 -0.075000 0.909392 167 119 0 255
0.774955 -0.715165 0.787500 134 79 1 255
0.718129 -0.761801 0.787500 138 85 33 255
0.582948 -0.082206 0.787500 134 79 0 255
0.653296 -0.103545 0.787500 134 79 0 255
0.718128 -0.138199 0.787500 134 79 0 255
0.774955 -0.184835 0.787500 255 255 255 255
0.821590 -0.241661 0.787500 255 255 255 255
0.718128 -0.138199 0.787500 255 255 255 255
0.582949 -0.817794 0.787500 134 79 1 255
0.509790 -0.825000 0.787500 134 79 0 255
0.856244 -0.306494 0.787500 134 79 0 255
0.509789 -0.075000 0.787500 134 79 0 255
-0.600000 -0.825000 0.787500 134 79 1 255
-0.600000 -0.450000 0.787500 134 79 0 255
-0.743506 -0.796455 0.787500 134 79 0 255
-0.808339 -0.761801 0.787500 134 79 0 255
-0.673159 -0.817795 0.787500 255 255 255 255
-0.673159 -0.817795 0.787500 134 79 0 255
-0.600000 -0.450000 0.787500 134 79 0 255
-0.600000 -0.825000 0.787500 134 79 1 255
-0.673159 -0.082206 0.787500 134 79 0 255
-0.600000 -0.075000 0.787500 134 79 0 255
-0.743506 -0.103545 0.787500 134 79 0 255
-0.865165 -0.715165 0.787500 134 79 0 255
-0.808339 -0.138199 0.787500 134 79 0 255
-0.911801 -0.658339 0.787500 134 79 0 255
-0.865165 -0.184835 0.787500 134 79 0 255
-0.946455 -0.593506 0.787500 134 79 3 255
-0.911801 -0.241661 0.787500 134 79 1 255
-0.967794 -0.523159 0.787500 134 79 1 255
-0.946455 -0.306494 0.787500 134 80 7 255
-0.975000 -0.450000 0.787500 134 79 3 255
-0.967794 -0.376841 0.787500 134 79 7 255
-0.600000 -0.075000 -0.787500 255 255 255 255
-0.600000 -0.075000 -0.787500 255 255 255 255
-0.600000 -0.450000 -0.787500 255 255 255 255
-0.600000 -0.450000 -0.787500 255 255 255 255
0.856244 -0.593506 -0.787500 134 79 0 255
0.884789 -0.450000 -0.787500 134 79 0 255
0.653296 -0.796455 -0.787500 134 79 5 255
0.509789 -0.075000 -0.787500 0 0 0 255
0.509789 -0.075000 -0.909392 0 0 0 255
-0.600000 -0.075000 -0.909392 0 0 0 255
-0.600000 -0.075000 -0.787500 0 0 0 255
-0.743506 -0.103545 -0.787500 0 0 0 255
-0.743506 -0.103545 -0.909392 0 0 0 255
-0.808339 -0.138199 -0.909392 0 0 0 255
-0.808339 -0.138199 -0.787500 0 0 0 255
0.856244 -0.306494 -0.787500 17 17 17 255
0.856244 -0.306494 -0.909392 78 78 78 255
0.821590 -0.241661 -0.909392 20 20 20 255
0.821590 -0.241661 -0.787500 0 0 0 255
-0.673159 -0.817795 -0.787500 0 0 0 255
-0.673159 -0.817795 -0.909392 0 0 0 255
-0.600000 -0.825000 -0.909392 0 0 0 255
-0.600000 -0.825000 -0.787500 0 0 0 255
0.877584 -0.523158 -0.787500 138 138 138 255
0.877584 -0.523158 -0.909392 97 97 97 255
0.884789 -0.450000 -0.909392 245 245 245 255
0.884789 -0.450000 -0.787500 250 250 250 255
-0.975000 -0.450000 -0.787500 248 248 248 255
-0.975000 -0.450000 -0.909392 250 250 250 255
-0.967794 -0.523159 -0.909392 136 136 136 255
-0.967794 -0.523159 -0.787500 104 104 104 255
0.509790 -0.825000 -0.787500 17 17 17 255
0.509790 -0.825000 -0.909392 0 0 0 255
0.582949 -0.817794 -0.909392 0 0 0 255
0.582949 -0.817794 -0.787500 20 20 20 255
-0.673159 -0.082205 -0.787500 0 0 0 255
-0.673159 -0.082205 -0.909392 0 0 0 255
0.877584 -0.376841 -0.787500 52 52 52 255
0.877584 -0.376841 -0.909392 99 99 99 255
0.821591 -0.658338 -0.787500 134 79 1 255
-0.743506 -0.796455 -0.787500 0 0 0 255
-0.743506 -0.796455 -0.909392 0 0 0 255
0.856244 -0.593506 -0.787500 26 26 26 255
0.856244 -0.593506 -0.909392 6 6 6 255
-0.967794 -0.376841 -0.787500 5 5 5 255
-0.967794 -0.376841 -0.909392 44 44 44 255
-0.975000 -0.450000 -0.909392 141 141 141 255
-0.975000 -0.450000 -0.787500 87 87 87 255
0.877584 -0.523158 -0.787500 255 255 255 255
0.884789 -0.450000 -0.787500 255 255 255 255
0.856244 -0.593506 -0.787500 255 255 255 255
-0.600000 -0.075000 -0.787500 0 0 0 255
-0.600000 -0.075000 -0.909392 0 0 0 255
-0.600000 -0.825000 -0.787500 255 255 255 255
-0.600000 -0.825000 -0.787500 255 255 255 255
0.582948 -0.082205 -0.787500 0 0 0 255
0.582948 -0.082205 -0.909392 0 0 0 255
-0.808339 -0.761801 -0.787500 0 0 0 255
-0.808339 -0.761801 -0.909392 0 0 0 255
0.821591 -0.658338 -0.787500 12 12 12 255
0.821591 -0.658338 -0.909392 0 0 0 255
0.877584 -0.376841 -0.787500 134 79 0 255
0.821590 -0.241661 -0.787500 134 79 0 255
0.884789 -0.450000 -0.787500 158 158 158 255
0.884789 -0.450000 -0.909392 191 191 191 255
-0.600000 -0.825000 -0.787500 0 0 0 255
-0.600000 -0.825000 -0.909392 0 0 0 255
-0.946455 -0.306494 -0.787500 7 7 7 255
-0.946455 -0.306494 -0.909392 29 29 29 255
0.653296 -0.103545 -0.787500 0 0 0 255
0.653296 -0.103545 -0.909392 0 0 0 255
-0.865165 -0.715165 -0.787500 0 0 0 255
-0.865165 -0.715165 -0.909392 1 1 1 255
0.774955 -0.715165 -0.787500 9 9 9 255
0.774955 -0.715165 -0.909392 0 0 0 255
-0.911801 -0.241661 -0.787500 1 1 1 255
-0.911801 -0.241661 -0.909392 9 9 9 255
0.718128 -0.138199 -0.787500 0 0 0 255
0.718128 -0.138199 -0.909392 0 0 0 255
-0.911801 -0.658339 -0.787500 0 0 0 255
-0.911801 -0.658339 -0.909392 2 2 2 255
0.718129 -0.761801 -0.787500 11 11 11 255
0.718129 -0.761801 -0.909392 0 0 0 255
-0.865165 -0.184835 -0.787500 0 0 0 255
-0.865165 -0.184835 -0.909392 3 3 3 255
0.774955 -0.184835 -0.787500 0 0 0 255
0.774955 -0.184835 -0.909392 0 0 0 255
-0.946455 -0.593506 -0.787500 2 2 2 255
-0.946455 -0.593506 -0.909392 11 11 11 255
0.653296 -0.796455 -0.787500 16 16 16 255
0.653296 -0.796455 -0.909392 0 0 0 255
-0.600000 -0.450000 -0.909392 167 119 0 255
-0.673159 -0.082205 -0.909392 167 119 0 255
-0.600000 -0.075000 -0.909392 167 119 0 255
-0.743506 -0.103545 -0.909392 167 119 0 255
-0.808339 -0.138199 -0.909392 167 119 0 255
-0.865165 -0.184835 -0.909392 167 119 0 255
-0.911801 -0.241661 -0.909392 167 119 0 255
-0.946455 -0.306494 -0.909392 167 119 0 255
-0.967794 -0.376841 -0.909392 167 119 0 255
-0.975000 -0.450000 -0.909392 167 119 0 255
-0.967794 -0.523159 -0.909392 167 119 0 255
-0.946455 -0.593506 -0.909392 167 119 0 255
-0.911801 -0.658339 -0.909392 167 119 0 255
-0.865165 -0.715165 -0.909392 167 119 5 255
-0.808339 -0.761801 -0.909392 168 121 27 255
-0.743506 -0.796455 -0.909392 171 127 48 255
-0.673159 -0.817795 -0.909392 170 124 41 255
-0.600000 -0.825000 -0.909392 168 120 19 255
0.877584 -0.523158 -0.909392 167 119 0 255
0.509789 -0.450000 -0.909392 167 119 5 255
0.884789 -0.450000 -0.909392 167 119 8 255
0.509789 -0.075000 -0.909392 167 119 0 255
0.582948 -0.082205 -0.909392 167 119 0 255
0.877584 -0.376841 -0.909392 167 119 11 255
0.509790 -0.825000 -0.909392 169 122 33 255
0.582949 -0.817794 -0.909392 170 123 33 255
0.653296 -0.103545 -0.909392 167 119 0 255
0.653296 -0.796455 -0.909392 168 121 26 255
0.718128 -0.138199 -0.909392 167 119 1 255
0.718129 -0.761801 -0.909392 167 120 16 255
0.774955 -0.184835 -0.909392 167 119 4 255
0.774955 -0.715165 -0.909392 167 119 8 255
0.821590 -0.241661 -0.909392 167 120 14 255
0.821591 -0.658338 -0.909392 167 119 3 255
0.856244 -0.306494 -0.909392 167 120 10 255
0.856244 -0.593506 -0.909392 167 119 1 255
-0.600000 -0.825000 -0.909392 168 120 19 255
-0.600000 -0.450000 -0.909392 167 119 0 255
-0.600000 -0.075000 -0.909392 167 119 0 255
0.774955 -0.715165 -0.787500 134 79 1 255
0.718129 -0.761801 -0.787500 138 85 33 255
0.582948 -0.082205 -0.787500 134 79 0 255
0.718128 -0.138199 -0.787500 134 79 0 255
0.653296 -0.103545 -0.787500 134 79 0 255
0.774955 -0.184835 -0.787500 255 255 255 255
0.718128 -0.138199 -0.787500 255 255 255 255
0.821590 -0.241661 -0.787500 255 255 255 255
0.582949 -0.817794 -0.787500 134 79 1 255
0.509790 -0.825000 -0.787500 134 79 0 255
0.856244 -0.306494 -0.787500 134 79 0 255
0.509789 -0.075000 -0.787500 134 79 0 255
-0.600000 -0.825000 -0.787500 134 79 1 255
-0.600000 -0.450000 -0.787500 134 79 0 255
-0.808339 -0.761801 -0.787500 134 79 0 255
-0.743506 -0.796455 -0.787500 134 79 0 255
-0.673159 -0.817795 -0.787500 255 255 255 255
-0.673159 -0.817795 -0.787500 134 79 0 255
-0.600000 -0.825000 -0.787500 134 79 1 255
-0.600000 -0.450000 -0.787500 134 79 0 255
-0.600000 -0.075000 -0.787500 134 79 0 255
-0.673159 -0.082205 -0.787500 134 79 0 255
-0.743506 -0.103545 -0.787500 134 79 0 255
-0.865165 -0.715165 -0.787500 134 79 0 255
-0.808339 -0.138199 -0.787500 134 79 0 255
-0.911801 -0.658339 -0.787500 134 79 0 255
-0.865165 -0.184835 -0.787500 134 79 0 255
-0.946455 -0.593506 -0.787500 134 79 3 255
-0.911801 -0.241661 -0.787500 134 79 1 255
-0.967794 -0.523159 -0.787500 134 79 1 255
-0.946455 -0.306494 -0.787500 134 80 7 255
-0.975000 -0.450000 -0.787500 134 79 3 255
-0.967794 -0.376841 -0.787500 134 79 7 255
1.097156 -0.704510 -0.000000 151 148 151 255
1.053626 -0.658560 -0.000000 151 148 151 255
1.053626 -0.658560 0.739962 151 148 151 255
1.097156 -0.704510 0.739962 151 148 151 255
0.903467 -0.049650 0.000000 151 148 151 255
0.930970 0.011493 0.000000 151 148 151 255
0.930970 0.011493 0.739962 151 148 151 255
0.903467 -0.049650 0.739962 151 148 151 255
1.053626 -0.658560 -0.000000 151 148 151 255
1.097156 -0.704510 -0.000000 157 155 157 255
1.143631 -0.735631 -0.000000 151 148 151 255
1.143631 -0.735631 0.739962 154 153 154 255
0.965537 0.059948 0.000000 151 148 151 255
0.965537 0.059948 0.739962 148 145 148 255
0.903467 -0.049650 0.000000 151 148 151 255
0.930970 0.011493 0.000000 151 148 151 255
0.965537 0.059948 0.000000 153 151 153 255
0.965537 0.059948 0.000000 151 148 151 255
1.143631 -0.735631 -0.000000 219 218 219 255
1.024573 0.059948 0.000000 151 148 151 255
1.024573 0.059948 0.739962 182 181 182 255
1.024573 0.059948 0.000000 254 254 254 255
0.990007 0.011493 0.000000 189 187 189 255
0.990007 0.011493 0.739962 152 149 152 255
1.084595 -0.735631 -0.000000 151 148 151 255
1.038120 -0.704510 -0.000000 151 148 151 255
1.038120 -0.704510 0.739962 151 148 151 255
1.084595 -0.735631 0.739962 151 148 151 255
0.962503 -0.049650 0.000000 153 150 153 255
0.962503 -0.049650 0.739962 151 148 151 255
0.994590 -0.658560 -0.000000 150 147 150 255
0.994590 -0.658560 0.739962 151 148 151 255
0.943119 -0.121131 0.000000 151 148 151 255
0.943119 -0.121131 0.739962 151 148 151 255
0.955678 -0.599548 -0.000000 150 147 150 255
0.955678 -0.599548 0.739962 151 148 151 255
0.932600 -0.200202 0.000000 153 150 153 255
0.932600 -0.200202 0.739962 151 148 151 255
1.084595 -0.735631 -0.000000 151 148 151 255
0.922879 -0.529742 -0.000000 145 142 145 255
0.922879 -0.529742 0.739962 151 148 151 255
1.038120 -0.704510 -0.000000 151 148 151 255
1.084595 -0.735631 -0.000000 153 150 153 255
0.931350 -0.283826 0.000000 193 192 193 255
0.931350 -0.283826 0.739962 151 148 151 255
0.994590 -0.658560 -0.000000 151 148 151 255
0.897455 -0.451824 -0.000000 132 130 132 255
0.897455 -0.451824 0.739962 151 148 151 255
0.965537 0.059948 0.000000 179 177 179 255
0.955678 -0.599548 -0.000000 151 148 151 255
0.990007 0.011493 0.000000 151 148 151 255
1.084595 -0.735631 -0.000000 151 148 151 255
1.038120 -0.704510 -0.000000 151 148 151 255
0.939417 -0.368788 -0.000000 169 167 169 255
0.939417 -0.368788 0.739962 151 148 151 255
0.922879 -0.529742 -0.000000 151 148 151 255
0.962503 -0.049650 0.000000 151 148 151 255
0.994590 -0.658560 -0.000000 150 147 150 255
0.880381 -0.368788 -0.000000 127 125 127 255
0.880381 -0.368788 0.739962 151 148 151 255
0.897455 -0.451824 -0.000000 154 151 154 255
0.943119 -0.121131 0.000000 151 148 151 255
0.955678 -0.599548 -0.000000 150 147 150 255
0.956491 -0.451824 -0.000000 183 181 183 255
0.960600 -0.447320 0.739962 151 148 151 255
0.880381 -0.368788 -0.000000 151 148 151 255
0.932600 -0.200202 0.000000 151 148 151 255
0.922879 -0.529742 -0.000000 145 142 145 255
0.872314 -0.283826 0.000000 135 132 135 255
0.872314 -0.283826 0.739962 151 148 151 255
0.872314 -0.283826 0.000000 156 153 156 255
0.931350 -0.283826 0.000000 142 140 142 255
0.897455 -0.451824 -0.000000 132 130 132 255
0.981916 -0.529742 -0.000000 152 149 152 255
0.981916 -0.529742 0.739962 151 148 151 255
0.873564 -0.200202 0.000000 151 148 151 255
0.873564 -0.200202 0.739962 151 148 151 255
0.939417 -0.368788 -0.000000 129 127 129 255
0.880381 -0.368788 -0.000000 127 125 127 255
0.873564 -0.200202 0.000000 148 145 148 255
0.884083 -0.121131 0.000000 151 148 151 255
0.884083 -0.121131 0.739962 151 148 151 255
0.956491 -0.451824 -0.000000 143 140 143 255
0.956491 -0.451824 0.739962 151 148 151 255
0.872314 -0.283826 0.000000 135 132 135 255
1.014714 -0.599548 -0.000000 151 148 151 255
1.014714 -0.599548 0.739962 151 148 151 255
0.903467 -0.049650 0.000000 151 148 151 255
0.981916 -0.529742 -0.000000 151 148 151 255
0.873564 -0.200202 0.000000 148 145 148 255
0.884083 -0.121131 0.000000 150 147 150 255
0.930970 0.011493 0.000000 151 148 151 255
1.014714 -0.599548 -0.000000 151 148 151 255
0.884083 -0.121131 0.000000 150 147 150 255
0.884083 -0.121131 0.000000 151 148 151 255
0.955678 -0.599548 -0.000000 151 148 151 255
0.994590 -0.658560 -0.000000 151 148 151 255
0.873564 -0.200202 0.000000 151 148 151 255
1.038120 -0.704510 -0.000000 151 148 151 255
0.880381 -0.368788 -0.000000 151 148 151 255
0.872314 -0.283826 0.000000 156 153 156 255
0.930970 0.011493 0.000000 151 148 151 255
0.897455 -0.451824 -0.000000 154 151 154 255
0.922879 -0.529742 -0.000000 151 148 151 255
0.903467 -0.049650 0.000000 151 148 151 255
1.097156 -0.704510 -0.739962 151 148 151 255
1.053626 -0.658560 -0.739962 151 148 151 255
0.903467 -0.049650 -0.739962 151 148 151 255
0.930970 0.011493 -0.739962 151 148 151 255
1.143631 -0.735631 -0.739962 154 153 154 255
0.965537 0.059948 -0.739962 148 145 148 255
1.024573 0.059948 -0.739962 182 181 182 255
0.990007 0.011493 -0.739962 152 149 152 255
1.084595 -0.735631 -0.739962 151 148 151 255
1.038120 -0.704510 -0.739962 151 148 151 255
0.962503 -0.049650 -0.739962 151 148 151 255
0.994590 -0.658560 -0.739962 151 148 151 255
0.943119 -0.121131 -0.739962 151 148 151 255
0.955678 -0.599548 -0.739962 151 148 151 255
0.932600 -0.200202 -0.739962 151 148 151 255
0.922879 -0.529742 -0.739962 151 148 151 255
0.931350 -0.283826 -0.739962 151 148 151 255
0.897455 -0.451824 -0.739962 151 148 151 255
0.939417 -0.368788 -0.739962 151 148 151 255
0.880381 -0.368788 -0.739962 151 148 151 255
0.960600 -0.447320 -0.739962 151 148 151 255
0.872314 -0.283826 -0.739962 151 148 151 255
0.981916 -0.529742 -0.739962 151 148 151 255
0.873564 -0.200202 -0.739962 151 148 151 255
0.884083 -0.121131 -0.739962 151 148 151 255
0.956491 -0.451824 -0.739962 151 148 151 255
1.014714 -0.599548 -0.739962 151 148 151 255
4 0 1 2 3
3 4 5 6
3 7 8 9
3 10 11 12
4 13 14 12 15
4 16 6 14 13
3 17 18 14
4 19 20 9 21
4 15 12 20 19
3 22 23 20
4 16 13 24 25
4 13 15 19 24
4 25 26 6 16
4 27 28 26 25
3 1 29 26
4 30 4 29 31
4 18 17 32 33
4 17 5 4 32
4 22 34 35 23
4 11 10 34 22
4 10 18 33 34
4 7 36 37 8
4 23 35 36 7
4 37 36 38 39
4 35 40 41 42
4 31 29 1 0
4 38 43 44 39
4 41 45 46 42
4 45 47 48 46
4 42 46 43 38
4 46 48 49 43
4 36 35 42 38
4 31 0 49 48
4 30 31 48 47
4 2 28 50 3
4 51 9 8 37
3 52 0 3
4 24 19 21 53
4 25 24 53 27
4 44 43 49 52
3 21 9 51
3 6 26 4
3 26 29 4
3 9 20 7
3 20 23 7
3 12 14 10
3 14 18 10
3 14 6 17
3 6 5 17
3 20 12 22
3 12 11 22
3 26 28 1
3 28 2 1
3 52 49 0
3 39 44 51
3 44 53 51
3 53 21 51
3 35 54 40
4 55 45 41 54
3 56 50 28
3 56 57 50
4 58 59 50 57
3 4 30 32
3 54 35 40
4 60 61 32 30
3 40 62 54
3 63 64 65
3 66 67 63
3 63 68 64
3 65 66 63
4 45 47 61 55
4 69 70 71 72
3 73 74 75
4 76 77 78 79
4 80 81 82 83
4 84 85 86 87
4 88 89 90 91
4 92 93 94 95
4 96 97 98 99
4 100 101 102 103
4 104 80 83 105
4 106 84 87 107
3 108 74 73
4 109 88 91 110
4 111 92 95 112
4 113 114 115 116
3 117 118 119
4 120 104 105 121
4 70 122 123 71
4 124 76 79 125
4 126 109 110 127
4 128 111 112 129
3 75 130 131
4 132 106 107 133
4 134 100 103 135
4 136 113 116 137
4 138 124 125 139
4 140 126 127 141
4 142 128 129 143
4 144 136 137 145
4 146 138 139 147
4 148 140 141 149
4 150 142 143 151
4 152 144 145 153
4 154 146 147 155
4 156 148 149 157
4 158 150 151 159
4 81 152 153 82
4 85 154 155 86
3 160 161 162
3 160 162 163
3 160 163 164
3 160 164 165
3 160 165 166
3 160 166 167
3 160 167 168
3 160 168 169
3 160 169 170
3 160 170 171
3 160 171 172
3 160 172 173
3 160 173 174
3 160 174 175
3 160 175 176
3 160 176 177
3 178 179 180
3 180 181 182
3 180 179 183
3 184 185 180
3 180 186 181
3 185 187 180
3 180 188 186
3 187 189 180
3 180 190 188
3 189 191 180
3 180 192 190
3 191 193 180
3 180 194 192
3 193 195 180
3 180 183 194
3 195 178 180
3 196 184 180
3 182 197 180
3 198 197 182
3 197 196 180
4 101 158 159 102
4 97 156 157 98
3 199 200 108
3 201 202 203
3 74 130 75
3 204 205 206
3 130 74 207
3 130 201 203
3 130 207 208
3 130 209 131
3 201 130 208
3 208 210 201
3 211 212 208
3 212 213 214
3 122 215 123
3 216 217 218
3 212 210 208
3 70 71 69
3 212 219 220
3 215 71 70
3 216 213 212
3 200 74 108
3 219 212 221
3 212 214 222
3 221 212 223
3 212 222 224
3 223 212 225
3 212 224 226
3 225 212 227
3 212 226 228
3 227 212 229
3 212 228 230
3 229 212 231
3 231 212 230
3 212 220 210
4 232 233 234 235
3 236 237 238
4 239 240 241 242
4 243 244 245 246
4 247 248 249 250
4 251 252 253 254
4 255 256 257 258
4 259 260 261 262
4 263 264 265 266
4 267 268 244 243
4 269 270 248 247
3 271 236 238
4 272 273 252 251
4 274 275 256 255
4 276 277 278 279
3 280 281 282
4 283 284 268 267
4 235 234 285 286
4 287 288 240 239
4 289 290 273 272
4 291 292 275 274
3 237 293 294
4 295 296 270 269
4 297 298 264 263
4 299 300 277 276
4 301 302 288 287
4 303 304 290 289
4 305 306 292 291
4 307 308 300 299
4 309 310 302 301
4 311 312 304 303
4 313 314 306 305
4 315 316 308 307
4 317 318 310 309
4 319 320 312 311
4 321 322 314 313
4 246 245 316 315
4 250 249 318 317
3 323 324 325
3 323 326 324
3 323 327 326
3 323 328 327
3 323 329 328
3 323 330 329
3 323 331 330
3 323 332 331
3 323 333 332
3 323 334 333
3 323 335 334
3 323 336 335
3 323 337 336
3 323 338 337
3 323 339 338
3 323 340 339
3 341 342 343
3 342 344 345
3 342 346 343
3 347 342 348
3 342 345 349
3 348 342 350
3 342 349 351
3 350 342 352
3 342 351 353
3 352 342 354
3 342 353 355
3 354 342 356
3 342 355 357
3 356 342 358
3 342 357 346
3 358 342 341
3 359 342 347
3 344 342 360
3 361 344 360
3 360 342 359
4 266 265 322 321
4 262 261 320 319
3 362 271 363
3 364 365 366
3 238 237 294
3 367 368 369
3 294 370 238
3 294 365 364
3 294 371 370
3 294 293 372
3 364 371 294
3 371 364 373
3 374 371 375
3 375 376 377
3 286 285 378
3 379 380 381
3 375 371 373
3 235 232 234
3 375 382 383
3 378 235 234
3 379 375 377
3 363 271 238
3 383 384 375
3 375 385 376
3 384 386 375
3 375 387 385
3 386 388 375
3 375 389 387
3 388 390 375
3 375 391 389
3 390 392 375
3 375 393 391
3 392 394 375
3 394 393 375
3 375 373 382
4 395 396 397 398
4 399 400 401 402
4 403 404 398 397
4 405 395 398 406
4 400 407 408 401
4 409 410 401 402
3 411 412 408
4 404 413 406 398
4 414 411 408 415
4 410 412 408 401
4 416 417 418 415
4 419 420 421 422
4 417 423 424 418
4 420 425 426 421
4 423 427 428 424
4 425 429 430 426
4 427 431 432 428
4 433 405 406 422
4 429 434 435 430
4 436 437 422 421
3 412 407 408
4 431 438 439 432
4 440 436 421 426
4 434 441 442 435
3 407 443 408
4 444 440 426 430
4 445 414 415 418
4 446 447 421 422
4 438 448 449 439
4 450 444 430 435
4 451 445 418 424
4 447 452 426 421
4 441 453 454 442
4 455 450 435 442
4 456 451 424 428
4 452 457 430 426
4 448 458 459 449
4 460 455 442 454
4 461 456 428 432
4 457 462 435 430
4 453 463 464 454
4 465 460 454 464
4 466 461 432 439
4 462 467 442 435
4 458 468 469 459
4 470 465 464 471
4 472 466 439 449
4 467 473 454 442
4 463 474 471 464
4 475 470 471 476
4 477 472 449 478
4 473 479 464 454
4 468 480 481 469
4 482 475 476 402
4 483 477 478 469
4 479 484 471 464
4 474 485 476 471
4 486 482 402 401
4 487 483 469 481
4 484 488 476 471
4 480 403 397 481
4 443 486 401 408
4 396 487 481 397
4 488 399 402 476
4 485 409 402 476
3 408 415 418
3 398 406 422
3 424 401 418
3 426 481 397
3 397 398 422
3 428 402 424
3 397 422 421
3 421 426 397
3 430 469 481
3 432 476 428
3 426 430 481
3 439 471 432
3 476 402 428
3 459 469 478
3 401 408 418
3 471 476 432
3 449 459 478
3 435 478 469
3 402 401 424
3 449 442 454
3 478 435 442
3 449 478 442
3 471 439 464
3 430 435 469
3 464 449 454
3 439 449 464
4 403 425 420 404
4 427 485 474 431
4 468 434 429 480
4 417 410 409 423
4 448 453 441 458
4 404 420 419 413
4 431 474 463 438
4 480 429 425 403
4 423 409 485 427
4 458 441 434 468
4 416 412 410 417
4 438 463 453 448
4 485 488 484 474
4 434 462 457 429
4 410 400 399 409
4 453 473 467 441
4 420 447 446 419
4 474 484 479 463
4 429 457 452 425
4 409 399 488 485
4 441 467 462 434
4 412 407 400 410
4 463 479 473 453
4 425 452 447 420
4 480 487 483 468
4 484 470 465 479
4 485 489 456 427
4 488 475 470 484
4 427 456 451 423
4 480 487 490 429
4 403 396 487 480
4 399 482 475 488
4 425 491 396 403
4 400 486 482 399
4 431 461 456 427
4 431 461 492 474
4 404 395 396 403
4 407 443 486 400
4 404 395 493 420
4 438 466 461 431
4 419 433 405 413
4 413 405 395 404
4 447 436 437 446
4 448 472 466 438
4 452 440 436 447
4 453 494 472 448
4 457 444 440 452
4 416 414 411 412
4 458 477 472 448
4 462 450 444 457
4 438 466 495 463
4 410 496 445 417
4 467 455 450 462
4 417 445 414 416
4 458 477 497 441
4 468 483 477 458
4 473 460 455 467
4 434 498 483 468
4 479 465 460 473
4 423 451 445 417
4 423 451 499 409
4 395 500 501 396
4 399 502 503 400
4 403 501 500 404
4 405 504 500 395
4 400 503 505 407
4 409 502 503 410
3 411 505 412
4 404 500 504 413
4 414 506 505 411
4 410 503 505 412
4 416 506 507 417
4 419 508 509 420
4 417 507 510 423
4 420 509 511 425
4 423 510 512 427
4 425 511 513 429
4 427 512 514 431
4 433 508 504 405
4 429 513 515 434
4 436 509 508 437
3 412 505 407
4 431 514 516 438
4 440 511 509 436
4 434 515 517 441
3 407 505 443
4 444 513 511 440
4 445 507 506 414
4 446 508 509 447
4 438 516 518 448
4 450 515 513 444
4 451 510 507 445
4 447 509 511 452
4 441 517 519 453
4 455 517 515 450
4 456 512 510 451
4 452 511 513 457
4 448 518 520 458
4 460 519 517 455
4 461 514 512 456
4 457 513 515 462
4 453 519 521 463
4 465 521 519 460
4 466 516 514 461
4 462 515 517 467
4 458 520 522 468
4 470 523 521 465
4 472 518 516 466
4 467 517 519 473
4 463 521 523 474
4 475 524 523 470
4 477 525 518 472
4 473 519 521 479
4 468 522 526 480
4 482 502 524 475
4 483 522 525 477
4 479 521 523 484
4 474 523 524 485
4 486 503 502 482
4 487 526 522 483
4 484 523 524 488
4 480 526 501 403
4 443 505 503 486
4 396 501 526 487
4 488 524 502 399
4 485 524 502 409
3 505 507 506
3 500 508 504
3 510 507 503
3 511 501 526
3 501 508 500
3 512 510 502
3 501 509 508
3 509 501 511
3 513 526 522
3 514 512 524
3 511 526 513
3 516 514 523
3 524 512 502
3 520 525 522
3 503 507 505
3 523 514 524
3 518 525 520
3 515 522 525
3 502 510 503
3 518 519 517
3 525 517 515
3 518 517 525
3 523 521 516
3 513 522 515
3 521 519 518
3 516 521 518
