ply
format ascii 1.0
comment Created by Blender 2.91.2 - www.blender.org
element vertex 812
property float x
property float y
property float z
property uchar red
property uchar green
property uchar blue
property uchar alpha
element face 672
property list uchar uint vertex_indices
end_header
0.400000 0.400000 0.400000 0 0 0 0
0.350000 0.400000 0.400000 0 0 0 0
0.350000 0.350000 0.400000 0 0 0 0
0.400000 0.350000 0.400000 0 0 0 0
0.300000 0.400000 0.400000 0 0 0 0
0.300000 0.350000 0.400000 0 0 0 0
0.300000 0.300000 0.400000 0 0 0 0
0.350000 0.300000 0.400000 0 0 0 0
0.400000 0.300000 0.400000 0 0 0 0
0.250000 0.400000 0.400000 0 0 0 0
0.250000 0.350000 0.400000 0 0 0 0
0.200000 0.400000 0.400000 0 0 0 0
0.200000 0.350000 0.400000 0 0 0 0
0.200000 0.300000 0.400000 0 0 0 0
0.250000 0.300000 0.400000 0 0 0 0
0.150000 0.400000 0.400000 0 0 0 0
0.150000 0.350000 0.400000 0 0 0 0
0.100000 0.400000 0.400000 0 0 0 0
0.100000 0.350000 0.400000 0 0 0 0
0.100000 0.300000 0.400000 0 0 0 0
0.150000 0.300000 0.400000 0 0 0 0
0.050000 0.400000 0.400000 0 0 0 0
0.050000 0.350000 0.400000 0 0 0 0
0.000000 0.400000 0.400000 0 0 0 0
0.000000 0.350000 0.400000 0 0 0 0
0.000000 0.300000 0.400000 0 0 0 0
0.050000 0.300000 0.400000 0 0 0 0
-0.050000 0.400000 0.400000 0 0 0 0
-0.050000 0.350000 0.400000 0 0 0 0
-0.100000 0.400000 0.400000 0 0 0 0
-0.100000 0.350000 0.400000 0 0 0 0
-0.100000 0.300000 0.400000 0 0 0 0
-0.050000 0.300000 0.400000 0 0 0 0
-0.150000 0.400000 0.400000 0 0 0 0
-0.150000 0.350000 0.400000 0 0 0 0
-0.200000 0.400000 0.400000 0 0 0 0
-0.200000 0.350000 0.400000 0 0 0 0
-0.200000 0.300000 0.400000 0 0 0 0
-0.150000 0.300000 0.400000 0 0 0 0
-0.250000 0.400000 0.400000 0 0 0 0
-0.250000 0.350000 0.400000 0 0 0 0
-0.300000 0.400000 0.400000 0 0 0 0
-0.300000 0.350000 0.400000 0 0 0 0
-0.300000 0.300000 0.400000 0 0 0 0
-0.250000 0.300000 0.400000 0 0 0 0
-0.350000 0.400000 0.400000 0 0 0 0
-0.350000 0.350000 0.400000 0 0 0 0
-0.400000 0.400000 0.400000 0 0 0 0
-0.400000 0.350000 0.400000 0 0 0 0
-0.400000 0.300000 0.400000 0 0 0 0
-0.350000 0.300000 0.400000 0 0 0 0
-0.350000 0.250000 0.400000 0 0 0 0
-0.300000 0.250000 0.400000 0 0 0 0
-0.400000 0.250000 0.400000 0 0 0 0
-0.400000 0.200000 0.400000 0 0 0 0
-0.350000 0.200000 0.400000 0 0 0 0
-0.300000 0.200000 0.400000 0 0 0 0
-0.350000 0.150000 0.400000 0 0 0 0
-0.300000 0.150000 0.400000 0 0 0 0
-0.400000 0.150000 0.400000 0 0 0 0
-0.400000 0.100000 0.400000 0 0 0 0
-0.350000 0.100000 0.400000 0 0 0 0
-0.300000 0.100000 0.400000 0 0 0 0
-0.350000 0.050000 0.400000 0 0 0 0
-0.300000 0.050000 0.400000 0 0 0 0
-0.400000 0.050000 0.400000 0 0 0 0
-0.400000 0.000000 0.400000 0 0 0 0
-0.350000 0.000000 0.400000 0 0 0 0
-0.300000 0.000000 0.400000 0 0 0 0
-0.350000 -0.050000 0.400000 0 0 0 0
-0.300000 -0.050000 0.400000 0 0 0 0
-0.400000 -0.050000 0.400000 0 0 0 0
-0.400000 -0.100000 0.400000 0 0 0 0
-0.350000 -0.100000 0.400000 0 0 0 0
-0.300000 -0.100000 0.400000 0 0 0 0
-0.350000 -0.150000 0.400000 0 0 0 0
-0.300000 -0.150000 0.400000 0 0 0 0
-0.400000 -0.150000 0.400000 0 0 0 0
-0.400000 -0.200000 0.400000 0 0 0 0
-0.350000 -0.200000 0.400000 0 0 0 0
-0.300000 -0.200000 0.400000 0 0 0 0
-0.350000 -0.250000 0.400000 0 0 0 0
-0.300000 -0.250000 0.400000 0 0 0 0
-0.400000 -0.250000 0.400000 0 0 0 0
-0.400000 -0.300000 0.400000 0 0 0 0
-0.350000 -0.300000 0.400000 0 0 0 0
-0.300000 -0.300000 0.400000 0 0 0 0
-0.350000 -0.350000 0.400000 0 0 0 0
-0.300000 -0.350000 0.400000 0 0 0 0
-0.400000 -0.350000 0.400000 0 0 0 0
-0.400000 -0.400000 0.400000 0 0 0 0
-0.350000 -0.400000 0.400000 0 0 0 0
-0.300000 -0.400000 0.400000 0 0 0 0
-0.200000 -0.300000 0.400000 0 0 0 0
-0.250000 -0.300000 0.400000 0 0 0 0
-0.250000 -0.350000 0.400000 0 0 0 0
-0.200000 -0.350000 0.400000 0 0 0 0
-0.250000 -0.400000 0.400000 0 0 0 0
-0.200000 -0.400000 0.400000 0 0 0 0
-0.100000 -0.300000 0.400000 0 0 0 0
-0.150000 -0.300000 0.400000 0 0 0 0
-0.150000 -0.350000 0.400000 0 0 0 0
-0.100000 -0.350000 0.400000 0 0 0 0
-0.150000 -0.400000 0.400000 0 0 0 0
-0.100000 -0.400000 0.400000 0 0 0 0
0.000000 -0.300000 0.400000 0 0 0 0
-0.050000 -0.300000 0.400000 0 0 0 0
-0.050000 -0.350000 0.400000 0 0 0 0
0.000000 -0.350000 0.400000 0 0 0 0
-0.050000 -0.400000 0.400000 0 0 0 0
0.000000 -0.400000 0.400000 0 0 0 0
0.100000 -0.300000 0.400000 0 0 0 0
0.050000 -0.300000 0.400000 0 0 0 0
0.050000 -0.350000 0.400000 0 0 0 0
0.100000 -0.350000 0.400000 0 0 0 0
0.050000 -0.400000 0.400000 0 0 0 0
0.100000 -0.400000 0.400000 0 0 0 0
0.200000 -0.300000 0.400000 0 0 0 0
0.150000 -0.300000 0.400000 0 0 0 0
0.150000 -0.350000 0.400000 0 0 0 0
0.200000 -0.350000 0.400000 0 0 0 0
0.150000 -0.400000 0.400000 0 0 0 0
0.200000 -0.400000 0.400000 0 0 0 0
0.300000 -0.300000 0.400000 0 0 0 0
0.250000 -0.300000 0.400000 0 0 0 0
0.250000 -0.350000 0.400000 0 0 0 0
0.300000 -0.350000 0.400000 0 0 0 0
0.250000 -0.400000 0.400000 0 0 0 0
0.300000 -0.400000 0.400000 0 0 0 0
0.400000 -0.300000 0.400000 0 0 0 0
0.350000 -0.300000 0.400000 0 0 0 0
0.350000 -0.350000 0.400000 0 0 0 0
0.400000 -0.350000 0.400000 0 0 0 0
0.350000 -0.400000 0.400000 0 0 0 0
0.400000 -0.400000 0.400000 0 0 0 0
0.400000 -0.200000 0.400000 0 0 0 0
0.350000 -0.200000 0.400000 0 0 0 0
0.350000 -0.250000 0.400000 0 0 0 0
0.400000 -0.250000 0.400000 0 0 0 0
0.300000 -0.200000 0.400000 0 0 0 0
0.300000 -0.250000 0.400000 0 0 0 0
0.400000 -0.100000 0.400000 0 0 0 0
0.350000 -0.100000 0.400000 0 0 0 0
0.350000 -0.150000 0.400000 0 0 0 0
0.400000 -0.150000 0.400000 0 0 0 0
0.300000 -0.100000 0.400000 0 0 0 0
0.300000 -0.150000 0.400000 0 0 0 0
0.400000 0.000000 0.400000 0 0 0 0
0.350000 0.000000 0.400000 0 0 0 0
0.350000 -0.050000 0.400000 0 0 0 0
0.400000 -0.050000 0.400000 0 0 0 0
0.300000 0.000000 0.400000 0 0 0 0
0.300000 -0.050000 0.400000 0 0 0 0
0.400000 0.100000 0.400000 0 0 0 0
0.350000 0.100000 0.400000 0 0 0 0
0.350000 0.050000 0.400000 0 0 0 0
0.400000 0.050000 0.400000 0 0 0 0
0.300000 0.100000 0.400000 0 0 0 0
0.300000 0.050000 0.400000 0 0 0 0
0.400000 0.200000 0.400000 0 0 0 0
0.350000 0.200000 0.400000 0 0 0 0
0.350000 0.150000 0.400000 0 0 0 0
0.400000 0.150000 0.400000 0 0 0 0
0.300000 0.200000 0.400000 0 0 0 0
0.300000 0.150000 0.400000 0 0 0 0
0.350000 0.250000 0.400000 0 0 0 0
0.400000 0.250000 0.400000 0 0 0 0
0.300000 0.250000 0.400000 0 0 0 0
0.400000 -0.400000 -0.400000 0 0 0 0
0.400000 -0.400000 -0.350000 0 0 0 0
0.350000 -0.400000 -0.350000 0 0 0 0
0.350000 -0.400000 -0.400000 0 0 0 0
0.400000 -0.400000 -0.300000 0 0 0 0
0.350000 -0.400000 -0.300000 0 0 0 0
0.300000 -0.400000 -0.300000 0 0 0 0
0.300000 -0.400000 -0.350000 0 0 0 0
0.300000 -0.400000 -0.400000 0 0 0 0
0.400000 -0.400000 -0.250000 0 0 0 0
0.350000 -0.400000 -0.250000 0 0 0 0
0.400000 -0.400000 -0.200000 0 0 0 0
0.350000 -0.400000 -0.200000 0 0 0 0
0.300000 -0.400000 -0.200000 0 0 0 0
0.300000 -0.400000 -0.250000 0 0 0 0
0.400000 -0.400000 -0.150000 0 0 0 0
0.350000 -0.400000 -0.150000 0 0 0 0
0.400000 -0.400000 -0.100000 0 0 0 0
0.350000 -0.400000 -0.100000 0 0 0 0
0.300000 -0.400000 -0.100000 0 0 0 0
0.300000 -0.400000 -0.150000 0 0 0 0
0.400000 -0.400000 -0.050000 0 0 0 0
0.350000 -0.400000 -0.050000 0 0 0 0
0.400000 -0.400000 0.000000 0 0 0 0
0.350000 -0.400000 0.000000 0 0 0 0
0.300000 -0.400000 0.000000 0 0 0 0
0.300000 -0.400000 -0.050000 0 0 0 0
0.400000 -0.400000 0.050000 0 0 0 0
0.350000 -0.400000 0.050000 0 0 0 0
0.400000 -0.400000 0.100000 0 0 0 0
0.350000 -0.400000 0.100000 0 0 0 0
0.300000 -0.400000 0.100000 0 0 0 0
0.300000 -0.400000 0.050000 0 0 0 0
0.400000 -0.400000 0.150000 0 0 0 0
0.350000 -0.400000 0.150000 0 0 0 0
0.400000 -0.400000 0.200000 0 0 0 0
0.350000 -0.400000 0.200000 0 0 0 0
0.300000 -0.400000 0.200000 0 0 0 0
0.300000 -0.400000 0.150000 0 0 0 0
0.400000 -0.400000 0.250000 0 0 0 0
0.350000 -0.400000 0.250000 0 0 0 0
0.400000 -0.400000 0.300000 0 0 0 0
0.350000 -0.400000 0.300000 0 0 0 0
0.300000 -0.400000 0.300000 0 0 0 0
0.300000 -0.400000 0.250000 0 0 0 0
0.400000 -0.400000 0.350000 0 0 0 0
0.350000 -0.400000 0.350000 0 0 0 0
0.300000 -0.400000 0.350000 0 0 0 0
0.250000 -0.400000 0.350000 0 0 0 0
0.250000 -0.400000 0.300000 0 0 0 0
0.200000 -0.400000 0.350000 0 0 0 0
0.200000 -0.400000 0.300000 0 0 0 0
0.150000 -0.400000 0.350000 0 0 0 0
0.150000 -0.400000 0.300000 0 0 0 0
0.100000 -0.400000 0.350000 0 0 0 0
0.100000 -0.400000 0.300000 0 0 0 0
0.050000 -0.400000 0.350000 0 0 0 0
0.050000 -0.400000 0.300000 0 0 0 0
0.000000 -0.400000 0.350000 0 0 0 0
0.000000 -0.400000 0.300000 0 0 0 0
-0.050000 -0.400000 0.350000 0 0 0 0
-0.050000 -0.400000 0.300000 0 0 0 0
-0.100000 -0.400000 0.350000 0 0 0 0
-0.100000 -0.400000 0.300000 0 0 0 0
-0.150000 -0.400000 0.350000 0 0 0 0
-0.150000 -0.400000 0.300000 0 0 0 0
-0.200000 -0.400000 0.350000 0 0 0 0
-0.200000 -0.400000 0.300000 0 0 0 0
-0.250000 -0.400000 0.350000 0 0 0 0
-0.250000 -0.400000 0.300000 0 0 0 0
-0.300000 -0.400000 0.350000 0 0 0 0
-0.300000 -0.400000 0.300000 0 0 0 0
-0.350000 -0.400000 0.350000 0 0 0 0
-0.350000 -0.400000 0.300000 0 0 0 0
-0.400000 -0.400000 0.350000 0 0 0 0
-0.400000 -0.400000 0.300000 0 0 0 0
-0.300000 -0.400000 0.200000 0 0 0 0
-0.300000 -0.400000 0.250000 0 0 0 0
-0.350000 -0.400000 0.250000 0 0 0 0
-0.350000 -0.400000 0.200000 0 0 0 0
-0.400000 -0.400000 0.250000 0 0 0 0
-0.400000 -0.400000 0.200000 0 0 0 0
-0.300000 -0.400000 0.100000 0 0 0 0
-0.300000 -0.400000 0.150000 0 0 0 0
-0.350000 -0.400000 0.150000 0 0 0 0
-0.350000 -0.400000 0.100000 0 0 0 0
-0.400000 -0.400000 0.150000 0 0 0 0
-0.400000 -0.400000 0.100000 0 0 0 0
-0.300000 -0.400000 0.000000 0 0 0 0
-0.300000 -0.400000 0.050000 0 0 0 0
-0.350000 -0.400000 0.050000 0 0 0 0
-0.350000 -0.400000 0.000000 0 0 0 0
-0.400000 -0.400000 0.050000 0 0 0 0
-0.400000 -0.400000 0.000000 0 0 0 0
-0.300000 -0.400000 -0.100000 0 0 0 0
-0.300000 -0.400000 -0.050000 0 0 0 0
-0.350000 -0.400000 -0.050000 0 0 0 0
-0.350000 -0.400000 -0.100000 0 0 0 0
-0.400000 -0.400000 -0.050000 0 0 0 0
-0.400000 -0.400000 -0.100000 0 0 0 0
-0.300000 -0.400000 -0.200000 0 0 0 0
-0.300000 -0.400000 -0.150000 0 0 0 0
-0.350000 -0.400000 -0.150000 0 0 0 0
-0.350000 -0.400000 -0.200000 0 0 0 0
-0.400000 -0.400000 -0.150000 0 0 0 0
-0.400000 -0.400000 -0.200000 0 0 0 0
-0.300000 -0.400000 -0.300000 0 0 0 0
-0.300000 -0.400000 -0.250000 0 0 0 0
-0.350000 -0.400000 -0.250000 0 0 0 0
-0.350000 -0.400000 -0.300000 0 0 0 0
-0.400000 -0.400000 -0.250000 0 0 0 0
-0.400000 -0.400000 -0.300000 0 0 0 0
-0.300000 -0.400000 -0.400000 0 0 0 0
-0.300000 -0.400000 -0.350000 0 0 0 0
-0.350000 -0.400000 -0.350000 0 0 0 0
-0.350000 -0.400000 -0.400000 0 0 0 0
-0.400000 -0.400000 -0.350000 0 0 0 0
-0.400000 -0.400000 -0.400000 89 46 0 255
-0.200000 -0.400000 -0.400000 0 0 0 0
-0.200000 -0.400000 -0.350000 0 0 0 0
-0.250000 -0.400000 -0.350000 0 0 0 0
-0.250000 -0.400000 -0.400000 0 0 0 0
-0.200000 -0.400000 -0.300000 0 0 0 0
-0.250000 -0.400000 -0.300000 0 0 0 0
-0.100000 -0.400000 -0.400000 0 0 0 0
-0.100000 -0.400000 -0.350000 0 0 0 0
-0.150000 -0.400000 -0.350000 0 0 0 0
-0.150000 -0.400000 -0.400000 0 0 0 0
-0.100000 -0.400000 -0.300000 0 0 0 0
-0.150000 -0.400000 -0.300000 0 0 0 0
0.000000 -0.400000 -0.400000 0 0 0 0
0.000000 -0.400000 -0.350000 0 0 0 0
-0.050000 -0.400000 -0.350000 0 0 0 0
-0.050000 -0.400000 -0.400000 0 0 0 0
0.000000 -0.400000 -0.300000 0 0 0 0
-0.050000 -0.400000 -0.300000 0 0 0 0
0.100000 -0.400000 -0.400000 0 0 0 0
0.100000 -0.400000 -0.350000 0 0 0 0
0.050000 -0.400000 -0.350000 0 0 0 0
0.050000 -0.400000 -0.400000 0 0 0 0
0.100000 -0.400000 -0.300000 0 0 0 0
0.050000 -0.400000 -0.300000 0 0 0 0
0.200000 -0.400000 -0.400000 0 0 0 0
0.200000 -0.400000 -0.350000 0 0 0 0
0.150000 -0.400000 -0.350000 0 0 0 0
0.150000 -0.400000 -0.400000 0 0 0 0
0.200000 -0.400000 -0.300000 0 0 0 0
0.150000 -0.400000 -0.300000 0 0 0 0
0.250000 -0.400000 -0.350000 0 0 0 0
0.250000 -0.400000 -0.400000 0 0 0 0
0.250000 -0.400000 -0.300000 0 0 0 0
-0.400000 -0.350000 -0.350000 0 0 0 0
-0.400000 -0.350000 -0.400000 0 0 0 0
-0.400000 -0.350000 -0.300000 0 0 0 0
-0.400000 -0.300000 -0.300000 0 0 0 0
-0.400000 -0.300000 -0.350000 0 0 0 0
-0.400000 -0.300000 -0.400000 0 0 0 0
-0.400000 -0.350000 -0.250000 0 0 0 0
-0.400000 -0.350000 -0.200000 0 0 0 0
-0.400000 -0.300000 -0.200000 0 0 0 0
-0.400000 -0.300000 -0.250000 0 0 0 0
-0.400000 -0.350000 -0.150000 0 0 0 0
-0.400000 -0.350000 -0.100000 0 0 0 0
-0.400000 -0.300000 -0.100000 0 0 0 0
-0.400000 -0.300000 -0.150000 0 0 0 0
-0.400000 -0.350000 -0.050000 0 0 0 0
-0.400000 -0.350000 0.000000 0 0 0 0
-0.400000 -0.300000 0.000000 0 0 0 0
-0.400000 -0.300000 -0.050000 0 0 0 0
-0.400000 -0.350000 0.050000 0 0 0 0
-0.400000 -0.350000 0.100000 0 0 0 0
-0.400000 -0.300000 0.100000 0 0 0 0
-0.400000 -0.300000 0.050000 0 0 0 0
-0.400000 -0.350000 0.150000 0 0 0 0
-0.400000 -0.350000 0.200000 0 0 0 0
-0.400000 -0.300000 0.200000 0 0 0 0
-0.400000 -0.300000 0.150000 0 0 0 0
-0.400000 -0.350000 0.250000 0 0 0 0
-0.400000 -0.350000 0.300000 0 0 0 0
-0.400000 -0.300000 0.300000 0 0 0 0
-0.400000 -0.300000 0.250000 0 0 0 0
-0.400000 -0.350000 0.350000 0 0 0 0
-0.400000 -0.300000 0.350000 0 0 0 0
-0.400000 -0.250000 0.350000 0 0 0 0
-0.400000 -0.250000 0.300000 0 0 0 0
-0.400000 -0.200000 0.350000 0 0 0 0
-0.400000 -0.200000 0.300000 0 0 0 0
-0.400000 -0.150000 0.350000 0 0 0 0
-0.400000 -0.150000 0.300000 0 0 0 0
-0.400000 -0.100000 0.350000 0 0 0 0
-0.400000 -0.100000 0.300000 0 0 0 0
-0.400000 -0.050000 0.350000 0 0 0 0
-0.400000 -0.050000 0.300000 0 0 0 0
-0.400000 -0.000000 0.350000 0 0 0 0
-0.400000 -0.000000 0.300000 0 0 0 0
-0.400000 0.050000 0.350000 0 0 0 0
-0.400000 0.050000 0.300000 0 0 0 0
-0.400000 0.100000 0.350000 0 0 0 0
-0.400000 0.100000 0.300000 0 0 0 0
-0.400000 0.150000 0.350000 0 0 0 0
-0.400000 0.150000 0.300000 0 0 0 0
-0.400000 0.200000 0.350000 0 0 0 0
-0.400000 0.200000 0.300000 0 0 0 0
-0.400000 0.250000 0.350000 37 39 0 39
-0.400000 0.250000 0.300000 0 0 0 0
-0.400000 0.300000 0.350000 0 0 0 0
-0.400000 0.300000 0.300000 0 0 0 0
-0.400000 0.350000 0.350000 0 0 0 0
-0.400000 0.350000 0.300000 0 0 0 0
-0.400000 0.400000 0.350000 0 0 0 0
-0.400000 0.400000 0.300000 0 0 0 0
-0.400000 0.300000 0.200000 0 0 0 0
-0.400000 0.300000 0.250000 0 0 0 0
-0.400000 0.350000 0.250000 0 0 0 0
-0.400000 0.350000 0.200000 0 0 0 0
-0.400000 0.400000 0.250000 0 0 0 0
-0.400000 0.400000 0.200000 0 0 0 0
-0.400000 0.300000 0.100000 0 0 0 0
-0.400000 0.300000 0.150000 0 0 0 0
-0.400000 0.350000 0.150000 0 0 0 0
-0.400000 0.350000 0.100000 0 0 0 0
-0.400000 0.400000 0.150000 0 0 0 0
-0.400000 0.400000 0.100000 0 0 0 0
-0.400000 0.300000 0.000000 0 0 0 0
-0.400000 0.300000 0.050000 0 0 0 0
-0.400000 0.350000 0.050000 0 0 0 0
-0.400000 0.350000 0.000000 0 0 0 0
-0.400000 0.400000 0.050000 0 0 0 0
-0.400000 0.400000 0.000000 0 0 0 0
-0.400000 0.300000 -0.100000 0 0 0 0
-0.400000 0.300000 -0.050000 0 0 0 0
-0.400000 0.350000 -0.050000 0 0 0 0
-0.400000 0.350000 -0.100000 0 0 0 0
-0.400000 0.400000 -0.050000 0 0 0 0
-0.400000 0.400000 -0.100000 0 0 0 0
-0.400000 0.300000 -0.200000 0 0 0 0
-0.400000 0.300000 -0.150000 0 0 0 0
-0.400000 0.350000 -0.150000 0 0 0 0
-0.400000 0.350000 -0.200000 0 0 0 0
-0.400000 0.400000 -0.150000 0 0 0 0
-0.400000 0.400000 -0.200000 0 0 0 0
-0.400000 0.300000 -0.300000 0 0 0 0
-0.400000 0.300000 -0.250000 0 0 0 0
-0.400000 0.350000 -0.250000 0 0 0 0
-0.400000 0.350000 -0.300000 0 0 0 0
-0.400000 0.400000 -0.250000 0 0 0 0
-0.400000 0.400000 -0.300000 0 0 0 0
-0.400000 0.300000 -0.400000 0 0 0 0
-0.400000 0.300000 -0.350000 0 0 0 0
-0.400000 0.350000 -0.350000 0 0 0 0
-0.400000 0.350000 -0.400000 0 0 0 0
-0.400000 0.400000 -0.350000 0 0 0 0
-0.400000 0.400000 -0.400000 0 0 0 0
-0.400000 0.200000 -0.400000 0 0 0 0
-0.400000 0.200000 -0.350000 0 0 0 0
-0.400000 0.250000 -0.350000 0 0 0 0
-0.400000 0.250000 -0.400000 0 0 0 0
-0.400000 0.200000 -0.300000 0 0 0 0
-0.400000 0.250000 -0.300000 0 0 0 0
-0.400000 0.100000 -0.400000 0 0 0 0
-0.400000 0.100000 -0.350000 0 0 0 0
-0.400000 0.150000 -0.350000 0 0 0 0
-0.400000 0.150000 -0.400000 0 0 0 0
-0.400000 0.100000 -0.300000 0 0 0 0
-0.400000 0.150000 -0.300000 0 0 0 0
-0.400000 0.000000 -0.400000 0 0 0 0
-0.400000 -0.000000 -0.350000 0 0 0 0
-0.400000 0.050000 -0.350000 0 0 0 0
-0.400000 0.050000 -0.400000 0 0 0 0
-0.400000 -0.000000 -0.300000 0 0 0 0
-0.400000 0.050000 -0.300000 0 0 0 0
-0.400000 -0.100000 -0.400000 0 0 0 0
-0.400000 -0.100000 -0.350000 0 0 0 0
-0.400000 -0.050000 -0.350000 0 0 0 0
-0.400000 -0.050000 -0.400000 0 0 0 0
-0.400000 -0.100000 -0.300000 0 0 0 0
-0.400000 -0.050000 -0.300000 0 0 0 0
-0.400000 -0.200000 -0.400000 0 0 0 0
-0.400000 -0.200000 -0.350000 0 0 0 0
-0.400000 -0.150000 -0.350000 0 0 0 0
-0.400000 -0.150000 -0.400000 0 0 0 0
-0.400000 -0.200000 -0.300000 0 0 0 0
-0.400000 -0.150000 -0.300000 0 0 0 0
-0.400000 -0.250000 -0.350000 0 0 0 0
-0.400000 -0.250000 -0.400000 0 0 0 0
-0.400000 -0.250000 -0.300000 0 0 0 0
-0.350000 0.400000 -0.400000 0 0 0 0
-0.350000 0.350000 -0.400000 0 0 0 0
-0.300000 0.400000 -0.400000 0 0 0 0
-0.300000 0.350000 -0.400000 0 0 0 0
-0.300000 0.300000 -0.400000 0 0 0 0
-0.350000 0.300000 -0.400000 0 0 0 0
-0.250000 0.400000 -0.400000 0 0 0 0
-0.250000 0.350000 -0.400000 0 0 0 0
-0.200000 0.400000 -0.400000 0 0 0 0
-0.200000 0.350000 -0.400000 0 0 0 0
-0.200000 0.300000 -0.400000 0 0 0 0
-0.250000 0.300000 -0.400000 0 0 0 0
-0.150000 0.400000 -0.400000 0 0 0 0
-0.150000 0.350000 -0.400000 0 0 0 0
-0.100000 0.400000 -0.400000 0 0 0 0
-0.100000 0.350000 -0.400000 0 0 0 0
-0.100000 0.300000 -0.400000 0 0 0 0
-0.150000 0.300000 -0.400000 0 0 0 0
-0.050000 0.400000 -0.400000 0 0 0 0
-0.050000 0.350000 -0.400000 0 0 0 0
0.000000 0.400000 -0.400000 0 0 0 0
0.000000 0.350000 -0.400000 0 0 0 0
0.000000 0.300000 -0.400000 0 0 0 0
-0.050000 0.300000 -0.400000 0 0 0 0
0.050000 0.400000 -0.400000 0 0 0 0
0.050000 0.350000 -0.400000 0 0 0 0
0.100000 0.400000 -0.400000 0 0 0 0
0.100000 0.350000 -0.400000 0 0 0 0
0.100000 0.300000 -0.400000 0 0 0 0
0.050000 0.300000 -0.400000 0 0 0 0
0.150000 0.400000 -0.400000 0 0 0 0
0.150000 0.350000 -0.400000 0 0 0 0
0.200000 0.400000 -0.400000 0 0 0 0
0.200000 0.350000 -0.400000 0 0 0 0
0.200000 0.300000 -0.400000 0 0 0 0
0.150000 0.300000 -0.400000 0 0 0 0
0.250000 0.400000 -0.400000 0 0 0 0
0.250000 0.350000 -0.400000 0 0 0 0
0.300000 0.400000 -0.400000 0 0 0 0
0.300000 0.350000 -0.400000 0 0 0 0
0.300000 0.300000 -0.400000 0 0 0 0
0.250000 0.300000 -0.400000 0 0 0 0
0.350000 0.400000 -0.400000 0 0 0 0
0.350000 0.350000 -0.400000 0 0 0 0
0.400000 0.400000 -0.400000 0 0 0 0
0.400000 0.350000 -0.400000 0 0 0 0
0.400000 0.300000 -0.400000 0 0 0 0
0.350000 0.300000 -0.400000 0 0 0 0
0.350000 0.250000 -0.400000 0 0 0 0
0.300000 0.250000 -0.400000 0 0 0 0
0.400000 0.250000 -0.400000 0 0 0 0
0.400000 0.200000 -0.400000 0 0 0 0
0.350000 0.200000 -0.400000 0 0 0 0
0.300000 0.200000 -0.400000 0 0 0 0
0.350000 0.150000 -0.400000 0 0 0 0
0.300000 0.150000 -0.400000 0 0 0 0
0.400000 0.150000 -0.400000 0 0 0 0
0.400000 0.100000 -0.400000 0 0 0 0
0.350000 0.100000 -0.400000 0 0 0 0
0.300000 0.100000 -0.400000 0 0 0 0
0.350000 0.050000 -0.400000 0 0 0 0
0.300000 0.050000 -0.400000 0 0 0 0
0.400000 0.050000 -0.400000 0 0 0 0
0.400000 0.000000 -0.400000 0 0 0 0
0.350000 0.000000 -0.400000 0 0 0 0
0.300000 0.000000 -0.400000 0 0 0 0
0.350000 -0.050000 -0.400000 0 0 0 0
0.300000 -0.050000 -0.400000 0 0 0 0
0.400000 -0.050000 -0.400000 0 0 0 0
0.400000 -0.100000 -0.400000 0 0 0 0
0.350000 -0.100000 -0.400000 0 0 0 0
0.300000 -0.100000 -0.400000 0 0 0 0
0.350000 -0.150000 -0.400000 0 0 0 0
0.300000 -0.150000 -0.400000 0 0 0 0
0.400000 -0.150000 -0.400000 0 0 0 0
0.400000 -0.200000 -0.400000 0 0 0 0
0.350000 -0.200000 -0.400000 0 0 0 0
0.300000 -0.200000 -0.400000 0 0 0 0
0.350000 -0.250000 -0.400000 0 0 0 0
0.300000 -0.250000 -0.400000 0 0 0 0
0.400000 -0.250000 -0.400000 0 0 0 0
0.400000 -0.300000 -0.400000 0 0 0 0
0.350000 -0.300000 -0.400000 0 0 0 0
0.300000 -0.300000 -0.400000 0 0 0 0
0.350000 -0.350000 -0.400000 0 0 0 0
0.300000 -0.350000 -0.400000 0 0 0 0
0.400000 -0.350000 -0.400000 0 0 0 0
0.200000 -0.300000 -0.400000 0 0 0 0
0.250000 -0.300000 -0.400000 0 0 0 0
0.250000 -0.350000 -0.400000 0 0 0 0
0.200000 -0.350000 -0.400000 0 0 0 0
0.100000 -0.300000 -0.400000 0 0 0 0
0.150000 -0.300000 -0.400000 0 0 0 0
0.150000 -0.350000 -0.400000 0 0 0 0
0.100000 -0.350000 -0.400000 0 0 0 0
0.000000 -0.300000 -0.400000 0 0 0 0
0.050000 -0.300000 -0.400000 0 0 0 0
0.050000 -0.350000 -0.400000 0 0 0 0
0.000000 -0.350000 -0.400000 0 0 0 0
-0.100000 -0.300000 -0.400000 0 0 0 0
-0.050000 -0.300000 -0.400000 0 0 0 0
-0.050000 -0.350000 -0.400000 0 0 0 0
-0.100000 -0.350000 -0.400000 0 0 0 0
-0.200000 -0.300000 -0.400000 0 0 0 0
-0.150000 -0.300000 -0.400000 0 0 0 0
-0.150000 -0.350000 -0.400000 0 0 0 0
-0.200000 -0.350000 -0.400000 0 0 0 0
-0.300000 -0.300000 -0.400000 0 0 0 0
-0.250000 -0.300000 -0.400000 0 0 0 0
-0.250000 -0.350000 -0.400000 0 0 0 0
-0.300000 -0.350000 -0.400000 0 0 0 0
-0.350000 -0.300000 -0.400000 0 0 0 0
-0.350000 -0.350000 -0.400000 0 0 0 0
-0.350000 -0.200000 -0.400000 0 0 0 0
-0.350000 -0.250000 -0.400000 0 0 0 0
-0.300000 -0.200000 -0.400000 0 0 0 0
-0.300000 -0.250000 -0.400000 0 0 0 0
-0.350000 -0.100000 -0.400000 0 0 0 0
-0.350000 -0.150000 -0.400000 0 0 0 0
-0.300000 -0.100000 -0.400000 0 0 0 0
-0.300000 -0.150000 -0.400000 0 0 0 0
-0.350000 0.000000 -0.400000 0 0 0 0
-0.350000 -0.050000 -0.400000 0 0 0 0
-0.300000 0.000000 -0.400000 0 0 0 0
-0.300000 -0.050000 -0.400000 0 0 0 0
-0.350000 0.100000 -0.400000 0 0 0 0
-0.350000 0.050000 -0.400000 0 0 0 0
-0.300000 0.100000 -0.400000 0 0 0 0
-0.300000 0.050000 -0.400000 0 0 0 0
-0.350000 0.200000 -0.400000 0 0 0 0
-0.350000 0.150000 -0.400000 0 0 0 0
-0.300000 0.200000 -0.400000 0 0 0 0
-0.300000 0.150000 -0.400000 0 0 0 0
-0.350000 0.250000 -0.400000 0 0 0 0
-0.300000 0.250000 -0.400000 0 0 0 0
0.400000 0.400000 -0.350000 0 0 0 0
0.400000 0.350000 -0.350000 0 0 0 0
0.400000 0.400000 -0.300000 0 0 0 0
0.400000 0.350000 -0.300000 0 0 0 0
0.400000 0.300000 -0.300000 0 0 0 0
0.400000 0.300000 -0.350000 0 0 0 0
0.400000 0.400000 -0.250000 0 0 0 0
0.400000 0.350000 -0.250000 0 0 0 0
0.400000 0.400000 -0.200000 0 0 0 0
0.400000 0.350000 -0.200000 0 0 0 0
0.400000 0.300000 -0.200000 0 0 0 0
0.400000 0.300000 -0.250000 0 0 0 0
0.400000 0.400000 -0.150000 0 0 0 0
0.400000 0.350000 -0.150000 0 0 0 0
0.400000 0.400000 -0.100000 0 0 0 0
0.400000 0.350000 -0.100000 0 0 0 0
0.400000 0.300000 -0.100000 0 0 0 0
0.400000 0.300000 -0.150000 0 0 0 0
0.400000 0.400000 -0.050000 0 0 0 0
0.400000 0.350000 -0.050000 0 0 0 0
0.400000 0.400000 0.000000 0 0 0 0
0.400000 0.350000 0.000000 0 0 0 0
0.400000 0.300000 0.000000 0 0 0 0
0.400000 0.300000 -0.050000 0 0 0 0
0.400000 0.400000 0.050000 0 0 0 0
0.400000 0.350000 0.050000 0 0 0 0
0.400000 0.400000 0.100000 0 0 0 0
0.400000 0.350000 0.100000 0 0 0 0
0.400000 0.300000 0.100000 0 0 0 0
0.400000 0.300000 0.050000 0 0 0 0
0.400000 0.400000 0.150000 0 0 0 0
0.400000 0.350000 0.150000 0 0 0 0
0.400000 0.400000 0.200000 0 0 0 0
0.400000 0.350000 0.200000 0 0 0 0
0.400000 0.300000 0.200000 0 0 0 0
0.400000 0.300000 0.150000 0 0 0 0
0.400000 0.400000 0.250000 0 0 0 0
0.400000 0.350000 0.250000 0 0 0 0
0.400000 0.400000 0.300000 0 0 0 0
0.400000 0.350000 0.300000 0 0 0 0
0.400000 0.300000 0.300000 0 0 0 0
0.400000 0.300000 0.250000 0 0 0 0
0.400000 0.400000 0.350000 0 0 0 0
0.400000 0.350000 0.350000 0 0 0 0
0.400000 0.300000 0.350000 0 0 0 0
0.400000 0.250000 0.350000 0 0 0 0
0.400000 0.250000 0.300000 0 0 0 0
0.400000 0.200000 0.350000 0 0 0 0
0.400000 0.200000 0.300000 0 0 0 0
0.400000 0.150000 0.350000 0 0 0 0
0.400000 0.150000 0.300000 0 0 0 0
0.400000 0.100000 0.350000 0 0 0 0
0.400000 0.100000 0.300000 0 0 0 0
0.400000 0.050000 0.350000 0 0 0 0
0.400000 0.050000 0.300000 0 0 0 0
0.400000 0.000000 0.350000 0 0 0 0
0.400000 0.000000 0.300000 0 0 0 0
0.400000 -0.050000 0.350000 0 0 0 0
0.400000 -0.050000 0.300000 0 0 0 0
0.400000 -0.100000 0.350000 0 0 0 0
0.400000 -0.100000 0.300000 0 0 0 0
0.400000 -0.150000 0.350000 0 0 0 0
0.400000 -0.150000 0.300000 0 0 0 0
0.400000 -0.200000 0.350000 0 0 0 0
0.400000 -0.200000 0.300000 0 0 0 0
0.400000 -0.250000 0.350000 0 0 0 0
0.400000 -0.250000 0.300000 0 0 0 0
0.400000 -0.300000 0.350000 0 0 0 0
0.400000 -0.300000 0.300000 0 0 0 0
0.400000 -0.350000 0.350000 0 0 0 0
0.400000 -0.350000 0.300000 0 0 0 0
0.400000 -0.300000 0.200000 0 0 0 0
0.400000 -0.300000 0.250000 0 0 0 0
0.400000 -0.350000 0.250000 0 0 0 0
0.400000 -0.350000 0.200000 0 0 0 0
0.400000 -0.300000 0.100000 0 0 0 0
0.400000 -0.300000 0.150000 0 0 0 0
0.400000 -0.350000 0.150000 0 0 0 0
0.400000 -0.350000 0.100000 0 0 0 0
0.400000 -0.300000 0.000000 0 0 0 0
0.400000 -0.300000 0.050000 0 0 0 0
0.400000 -0.350000 0.050000 0 0 0 0
0.400000 -0.350000 0.000000 0 0 0 0
0.400000 -0.300000 -0.100000 0 0 0 0
0.400000 -0.300000 -0.050000 0 0 0 0
0.400000 -0.350000 -0.050000 0 0 0 0
0.400000 -0.350000 -0.100000 0 0 0 0
0.400000 -0.300000 -0.200000 0 0 0 0
0.400000 -0.300000 -0.150000 0 0 0 0
0.400000 -0.350000 -0.150000 0 0 0 0
0.400000 -0.350000 -0.200000 0 0 0 0
0.400000 -0.300000 -0.300000 0 0 0 0
0.400000 -0.300000 -0.250000 0 0 0 0
0.400000 -0.350000 -0.250000 0 0 0 0
0.400000 -0.350000 -0.300000 0 0 0 0
0.400000 -0.300000 -0.350000 0 0 0 0
0.400000 -0.350000 -0.350000 0 0 0 0
0.400000 -0.200000 -0.350000 0 0 0 0
0.400000 -0.250000 -0.350000 0 0 0 0
0.400000 -0.200000 -0.300000 0 0 0 0
0.400000 -0.250000 -0.300000 0 0 0 0
0.400000 -0.100000 -0.350000 0 0 0 0
0.400000 -0.150000 -0.350000 0 0 0 0
0.400000 -0.100000 -0.300000 0 0 0 0
0.400000 -0.150000 -0.300000 0 0 0 0
0.400000 0.000000 -0.350000 0 0 0 0
0.400000 -0.050000 -0.350000 0 0 0 0
0.400000 0.000000 -0.300000 0 0 0 0
0.400000 -0.050000 -0.300000 0 0 0 0
0.400000 0.100000 -0.350000 0 0 0 0
0.400000 0.050000 -0.350000 0 0 0 0
0.400000 0.100000 -0.300000 0 0 0 0
0.400000 0.050000 -0.300000 0 0 0 0
0.400000 0.200000 -0.350000 0 0 0 0
0.400000 0.150000 -0.350000 0 0 0 0
0.400000 0.200000 -0.300000 0 0 0 0
0.400000 0.150000 -0.300000 0 0 0 0
0.400000 0.250000 -0.350000 0 0 0 0
0.400000 0.250000 -0.300000 0 0 0 0
-0.350000 0.400000 -0.350000 0 0 0 0
-0.350000 0.400000 -0.300000 0 0 0 0
-0.300000 0.400000 -0.300000 0 0 0 0
-0.300000 0.400000 -0.350000 0 0 0 0
-0.350000 0.400000 -0.250000 0 0 0 0
-0.350000 0.400000 -0.200000 0 0 0 0
-0.300000 0.400000 -0.200000 0 0 0 0
-0.300000 0.400000 -0.250000 0 0 0 0
-0.350000 0.400000 -0.150000 0 0 0 0
-0.350000 0.400000 -0.100000 0 0 0 0
-0.300000 0.400000 -0.100000 0 0 0 0
-0.300000 0.400000 -0.150000 0 0 0 0
-0.350000 0.400000 -0.050000 0 0 0 0
-0.350000 0.400000 0.000000 0 0 0 0
-0.300000 0.400000 0.000000 0 0 0 0
-0.300000 0.400000 -0.050000 0 0 0 0
-0.350000 0.400000 0.050000 0 0 0 0
-0.350000 0.400000 0.100000 0 0 0 0
-0.300000 0.400000 0.100000 0 0 0 0
-0.300000 0.400000 0.050000 0 0 0 0
-0.350000 0.400000 0.150000 0 0 0 0
-0.350000 0.400000 0.200000 0 0 0 0
-0.300000 0.400000 0.200000 0 0 0 0
-0.300000 0.400000 0.150000 0 0 0 0
-0.350000 0.400000 0.250000 0 0 0 0
-0.350000 0.400000 0.300000 0 0 0 0
-0.300000 0.400000 0.300000 0 0 0 0
-0.300000 0.400000 0.250000 0 0 0 0
-0.350000 0.400000 0.350000 0 0 0 0
-0.300000 0.400000 0.350000 0 0 0 0
-0.250000 0.400000 0.350000 0 0 0 0
-0.250000 0.400000 0.300000 0 0 0 0
-0.200000 0.400000 0.350000 0 0 0 0
-0.200000 0.400000 0.300000 0 0 0 0
-0.150000 0.400000 0.350000 0 0 0 0
-0.150000 0.400000 0.300000 0 0 0 0
-0.100000 0.400000 0.350000 0 0 0 0
-0.100000 0.400000 0.300000 0 0 0 0
-0.050000 0.400000 0.350000 0 0 0 0
-0.050000 0.400000 0.300000 0 0 0 0
-0.000000 0.400000 0.350000 0 0 0 0
-0.000000 0.400000 0.300000 0 0 0 0
0.050000 0.400000 0.350000 0 0 0 0
0.050000 0.400000 0.300000 0 0 0 0
0.100000 0.400000 0.350000 0 0 0 0
0.100000 0.400000 0.300000 0 0 0 0
0.150000 0.400000 0.350000 0 0 0 0
0.150000 0.400000 0.300000 0 0 0 0
0.200000 0.400000 0.350000 0 0 0 0
0.200000 0.400000 0.300000 0 0 0 0
0.250000 0.400000 0.350000 0 0 0 0
0.250000 0.400000 0.300000 0 0 0 0
0.300000 0.400000 0.350000 0 0 0 0
0.300000 0.400000 0.300000 0 0 0 0
0.350000 0.400000 0.350000 0 0 0 0
0.350000 0.400000 0.300000 0 0 0 0
0.300000 0.400000 0.200000 0 0 0 0
0.300000 0.400000 0.250000 0 0 0 0
0.350000 0.400000 0.250000 0 0 0 0
0.350000 0.400000 0.200000 0 0 0 0
0.300000 0.400000 0.100000 0 0 0 0
0.300000 0.400000 0.150000 0 0 0 0
0.350000 0.400000 0.150000 0 0 0 0
0.350000 0.400000 0.100000 0 0 0 0
0.300000 0.400000 0.000000 0 0 0 0
0.300000 0.400000 0.050000 0 0 0 0
0.350000 0.400000 0.050000 0 0 0 0
0.350000 0.400000 0.000000 0 0 0 0
0.300000 0.400000 -0.100000 0 0 0 0
0.300000 0.400000 -0.050000 0 0 0 0
0.350000 0.400000 -0.050000 0 0 0 0
0.350000 0.400000 -0.100000 0 0 0 0
0.300000 0.400000 -0.200000 0 0 0 0
0.300000 0.400000 -0.150000 0 0 0 0
0.350000 0.400000 -0.150000 0 0 0 0
0.350000 0.400000 -0.200000 0 0 0 0
0.300000 0.400000 -0.300000 0 0 0 0
0.300000 0.400000 -0.250000 0 0 0 0
0.350000 0.400000 -0.250000 0 0 0 0
0.350000 0.400000 -0.300000 0 0 0 0
0.300000 0.400000 -0.350000 0 0 0 0
0.350000 0.400000 -0.350000 0 0 0 0
0.200000 0.400000 -0.350000 0 0 0 0
0.250000 0.400000 -0.350000 0 0 0 0
0.200000 0.400000 -0.300000 0 0 0 0
0.250000 0.400000 -0.300000 0 0 0 0
0.100000 0.400000 -0.350000 0 0 0 0
0.150000 0.400000 -0.350000 0 0 0 0
0.100000 0.400000 -0.300000 0 0 0 0
0.150000 0.400000 -0.300000 0 0 0 0
-0.000000 0.400000 -0.350000 0 0 0 0
0.050000 0.400000 -0.350000 0 0 0 0
-0.000000 0.400000 -0.300000 0 0 0 0
0.050000 0.400000 -0.300000 0 0 0 0
-0.100000 0.400000 -0.350000 0 0 0 0
-0.050000 0.400000 -0.350000 0 0 0 0
-0.100000 0.400000 -0.300000 0 0 0 0
-0.050000 0.400000 -0.300000 0 0 0 0
-0.200000 0.400000 -0.350000 0 0 0 0
-0.150000 0.400000 -0.350000 0 0 0 0
-0.200000 0.400000 -0.300000 0 0 0 0
-0.150000 0.400000 -0.300000 0 0 0 0
-0.250000 0.400000 -0.350000 0 0 0 0
-0.250000 0.400000 -0.300000 0 0 0 0
4 0 1 2 3
4 1 4 5 2
4 2 5 6 7
4 3 2 7 8
4 4 9 10 5
4 9 11 12 10
4 10 12 13 14
4 5 10 14 6
4 11 15 16 12
4 15 17 18 16
4 16 18 19 20
4 12 16 20 13
4 17 21 22 18
4 21 23 24 22
4 22 24 25 26
4 18 22 26 19
4 23 27 28 24
4 27 29 30 28
4 28 30 31 32
4 24 28 32 25
4 29 33 34 30
4 33 35 36 34
4 34 36 37 38
4 30 34 38 31
4 35 39 40 36
4 39 41 42 40
4 40 42 43 44
4 36 40 44 37
4 41 45 46 42
4 45 47 48 46
4 46 48 49 50
4 42 46 50 43
4 43 50 51 52
4 50 49 53 51
4 51 53 54 55
4 52 51 55 56
4 56 55 57 58
4 55 54 59 57
4 57 59 60 61
4 58 57 61 62
4 62 61 63 64
4 61 60 65 63
4 63 65 66 67
4 64 63 67 68
4 68 67 69 70
4 67 66 71 69
4 69 71 72 73
4 70 69 73 74
4 74 73 75 76
4 73 72 77 75
4 75 77 78 79
4 76 75 79 80
4 80 79 81 82
4 79 78 83 81
4 81 83 84 85
4 82 81 85 86
4 86 85 87 88
4 85 84 89 87
4 87 89 90 91
4 88 87 91 92
4 93 94 95 96
4 94 86 88 95
4 95 88 92 97
4 96 95 97 98
4 99 100 101 102
4 100 93 96 101
4 101 96 98 103
4 102 101 103 104
4 105 106 107 108
4 106 99 102 107
4 107 102 104 109
4 108 107 109 110
4 111 112 113 114
4 112 105 108 113
4 113 108 110 115
4 114 113 115 116
4 117 118 119 120
4 118 111 114 119
4 119 114 116 121
4 120 119 121 122
4 123 124 125 126
4 124 117 120 125
4 125 120 122 127
4 126 125 127 128
4 129 130 131 132
4 130 123 126 131
4 131 126 128 133
4 132 131 133 134
4 135 136 137 138
4 136 139 140 137
4 137 140 123 130
4 138 137 130 129
4 141 142 143 144
4 142 145 146 143
4 143 146 139 136
4 144 143 136 135
4 147 148 149 150
4 148 151 152 149
4 149 152 145 142
4 150 149 142 141
4 153 154 155 156
4 154 157 158 155
4 155 158 151 148
4 156 155 148 147
4 159 160 161 162
4 160 163 164 161
4 161 164 157 154
4 162 161 154 153
4 8 7 165 166
4 7 6 167 165
4 165 167 163 160
4 166 165 160 159
4 168 169 170 171
4 169 172 173 170
4 170 173 174 175
4 171 170 175 176
4 172 177 178 173
4 177 179 180 178
4 178 180 181 182
4 173 178 182 174
4 179 183 184 180
4 183 185 186 184
4 184 186 187 188
4 180 184 188 181
4 185 189 190 186
4 189 191 192 190
4 190 192 193 194
4 186 190 194 187
4 191 195 196 192
4 195 197 198 196
4 196 198 199 200
4 192 196 200 193
4 197 201 202 198
4 201 203 204 202
4 202 204 205 206
4 198 202 206 199
4 203 207 208 204
4 207 209 210 208
4 208 210 211 212
4 204 208 212 205
4 209 213 214 210
4 213 134 133 214
4 214 133 128 215
4 210 214 215 211
4 211 215 216 217
4 215 128 127 216
4 216 127 122 218
4 217 216 218 219
4 219 218 220 221
4 218 122 121 220
4 220 121 116 222
4 221 220 222 223
4 223 222 224 225
4 222 116 115 224
4 224 115 110 226
4 225 224 226 227
4 227 226 228 229
4 226 110 109 228
4 228 109 104 230
4 229 228 230 231
4 231 230 232 233
4 230 104 103 232
4 232 103 98 234
4 233 232 234 235
4 235 234 236 237
4 234 98 97 236
4 236 97 92 238
4 237 236 238 239
4 239 238 240 241
4 238 92 91 240
4 240 91 90 242
4 241 240 242 243
4 244 245 246 247
4 245 239 241 246
4 246 241 243 248
4 247 246 248 249
4 250 251 252 253
4 251 244 247 252
4 252 247 249 254
4 253 252 254 255
4 256 257 258 259
4 257 250 253 258
4 258 253 255 260
4 259 258 260 261
4 262 263 264 265
4 263 256 259 264
4 264 259 261 266
4 265 264 266 267
4 268 269 270 271
4 269 262 265 270
4 270 265 267 272
4 271 270 272 273
4 274 275 276 277
4 275 268 271 276
4 276 271 273 278
4 277 276 278 279
4 280 281 282 283
4 281 274 277 282
4 282 277 279 284
4 283 282 284 285
4 286 287 288 289
4 287 290 291 288
4 288 291 274 281
4 289 288 281 280
4 292 293 294 295
4 293 296 297 294
4 294 297 290 287
4 295 294 287 286
4 298 299 300 301
4 299 302 303 300
4 300 303 296 293
4 301 300 293 292
4 304 305 306 307
4 305 308 309 306
4 306 309 302 299
4 307 306 299 298
4 310 311 312 313
4 311 314 315 312
4 312 315 308 305
4 313 312 305 304
4 176 175 316 317
4 175 174 318 316
4 316 318 314 311
4 317 316 311 310
4 285 284 319 320
4 284 279 321 319
4 319 321 322 323
4 320 319 323 324
4 279 278 325 321
4 278 273 326 325
4 325 326 327 328
4 321 325 328 322
4 273 272 329 326
4 272 267 330 329
4 329 330 331 332
4 326 329 332 327
4 267 266 333 330
4 266 261 334 333
4 333 334 335 336
4 330 333 336 331
4 261 260 337 334
4 260 255 338 337
4 337 338 339 340
4 334 337 340 335
4 255 254 341 338
4 254 249 342 341
4 341 342 343 344
4 338 341 344 339
4 249 248 345 342
4 248 243 346 345
4 345 346 347 348
4 342 345 348 343
4 243 242 349 346
4 242 90 89 349
4 349 89 84 350
4 346 349 350 347
4 347 350 351 352
4 350 84 83 351
4 351 83 78 353
4 352 351 353 354
4 354 353 355 356
4 353 78 77 355
4 355 77 72 357
4 356 355 357 358
4 358 357 359 360
4 357 72 71 359
4 359 71 66 361
4 360 359 361 362
4 362 361 363 364
4 361 66 65 363
4 363 65 60 365
4 364 363 365 366
4 366 365 367 368
4 365 60 59 367
4 367 59 54 369
4 368 367 369 370
4 370 369 371 372
4 369 54 53 371
4 371 53 49 373
4 372 371 373 374
4 374 373 375 376
4 373 49 48 375
4 375 48 47 377
4 376 375 377 378
4 379 380 381 382
4 380 374 376 381
4 381 376 378 383
4 382 381 383 384
4 385 386 387 388
4 386 379 382 387
4 387 382 384 389
4 388 387 389 390
4 391 392 393 394
4 392 385 388 393
4 393 388 390 395
4 394 393 395 396
4 397 398 399 400
4 398 391 394 399
4 399 394 396 401
4 400 399 401 402
4 403 404 405 406
4 404 397 400 405
4 405 400 402 407
4 406 405 407 408
4 409 410 411 412
4 410 403 406 411
4 411 406 408 413
4 412 411 413 414
4 415 416 417 418
4 416 409 412 417
4 417 412 414 419
4 418 417 419 420
4 421 422 423 424
4 422 425 426 423
4 423 426 409 416
4 424 423 416 415
4 427 428 429 430
4 428 431 432 429
4 429 432 425 422
4 430 429 422 421
4 433 434 435 436
4 434 437 438 435
4 435 438 431 428
4 436 435 428 427
4 439 440 441 442
4 440 443 444 441
4 441 444 437 434
4 442 441 434 433
4 445 446 447 448
4 446 449 450 447
4 447 450 443 440
4 448 447 440 439
4 324 323 451 452
4 323 322 453 451
4 451 453 449 446
4 452 451 446 445
4 420 454 455 418
4 454 456 457 455
4 455 457 458 459
4 418 455 459 415
4 456 460 461 457
4 460 462 463 461
4 461 463 464 465
4 457 461 465 458
4 462 466 467 463
4 466 468 469 467
4 467 469 470 471
4 463 467 471 464
4 468 472 473 469
4 472 474 475 473
4 473 475 476 477
4 469 473 477 470
4 474 478 479 475
4 478 480 481 479
4 479 481 482 483
4 475 479 483 476
4 480 484 485 481
4 484 486 487 485
4 485 487 488 489
4 481 485 489 482
4 486 490 491 487
4 490 492 493 491
4 491 493 494 495
4 487 491 495 488
4 492 496 497 493
4 496 498 499 497
4 497 499 500 501
4 493 497 501 494
4 494 501 502 503
4 501 500 504 502
4 502 504 505 506
4 503 502 506 507
4 507 506 508 509
4 506 505 510 508
4 508 510 511 512
4 509 508 512 513
4 513 512 514 515
4 512 511 516 514
4 514 516 517 518
4 515 514 518 519
4 519 518 520 521
4 518 517 522 520
4 520 522 523 524
4 521 520 524 525
4 525 524 526 527
4 524 523 528 526
4 526 528 529 530
4 527 526 530 531
4 531 530 532 533
4 530 529 534 532
4 532 534 535 536
4 533 532 536 537
4 537 536 538 539
4 536 535 540 538
4 538 540 168 171
4 539 538 171 176
4 541 542 543 544
4 542 537 539 543
4 543 539 176 317
4 544 543 317 310
4 545 546 547 548
4 546 541 544 547
4 547 544 310 313
4 548 547 313 304
4 549 550 551 552
4 550 545 548 551
4 551 548 304 307
4 552 551 307 298
4 553 554 555 556
4 554 549 552 555
4 555 552 298 301
4 556 555 301 292
4 557 558 559 560
4 558 553 556 559
4 559 556 292 295
4 560 559 295 286
4 561 562 563 564
4 562 557 560 563
4 563 560 286 289
4 564 563 289 280
4 324 565 566 320
4 565 561 564 566
4 566 564 280 283
4 320 566 283 285
4 445 567 568 452
4 567 569 570 568
4 568 570 561 565
4 452 568 565 324
4 439 571 572 448
4 571 573 574 572
4 572 574 569 567
4 448 572 567 445
4 433 575 576 442
4 575 577 578 576
4 576 578 573 571
4 442 576 571 439
4 427 579 580 436
4 579 581 582 580
4 580 582 577 575
4 436 580 575 433
4 421 583 584 430
4 583 585 586 584
4 584 586 581 579
4 430 584 579 427
4 415 459 587 424
4 459 458 588 587
4 587 588 585 583
4 424 587 583 421
4 498 589 590 499
4 589 591 592 590
4 590 592 593 594
4 499 590 594 500
4 591 595 596 592
4 595 597 598 596
4 596 598 599 600
4 592 596 600 593
4 597 601 602 598
4 601 603 604 602
4 602 604 605 606
4 598 602 606 599
4 603 607 608 604
4 607 609 610 608
4 608 610 611 612
4 604 608 612 605
4 609 613 614 610
4 613 615 616 614
4 614 616 617 618
4 610 614 618 611
4 615 619 620 616
4 619 621 622 620
4 620 622 623 624
4 616 620 624 617
4 621 625 626 622
4 625 627 628 626
4 626 628 629 630
4 622 626 630 623
4 627 631 632 628
4 631 0 3 632
4 632 3 8 633
4 628 632 633 629
4 629 633 634 635
4 633 8 166 634
4 634 166 159 636
4 635 634 636 637
4 637 636 638 639
4 636 159 162 638
4 638 162 153 640
4 639 638 640 641
4 641 640 642 643
4 640 153 156 642
4 642 156 147 644
4 643 642 644 645
4 645 644 646 647
4 644 147 150 646
4 646 150 141 648
4 647 646 648 649
4 649 648 650 651
4 648 141 144 650
4 650 144 135 652
4 651 650 652 653
4 653 652 654 655
4 652 135 138 654
4 654 138 129 656
4 655 654 656 657
4 657 656 658 659
4 656 129 132 658
4 658 132 134 213
4 659 658 213 209
4 660 661 662 663
4 661 657 659 662
4 662 659 209 207
4 663 662 207 203
4 664 665 666 667
4 665 660 663 666
4 666 663 203 201
4 667 666 201 197
4 668 669 670 671
4 669 664 667 670
4 670 667 197 195
4 671 670 195 191
4 672 673 674 675
4 673 668 671 674
4 674 671 191 189
4 675 674 189 185
4 676 677 678 679
4 677 672 675 678
4 678 675 185 183
4 679 678 183 179
4 680 681 682 683
4 681 676 679 682
4 682 679 179 177
4 683 682 177 172
4 535 684 685 540
4 684 680 683 685
4 685 683 172 169
4 540 685 169 168
4 529 686 687 534
4 686 688 689 687
4 687 689 680 684
4 534 687 684 535
4 523 690 691 528
4 690 692 693 691
4 691 693 688 686
4 528 691 686 529
4 517 694 695 522
4 694 696 697 695
4 695 697 692 690
4 522 695 690 523
4 511 698 699 516
4 698 700 701 699
4 699 701 696 694
4 516 699 694 517
4 505 702 703 510
4 702 704 705 703
4 703 705 700 698
4 510 703 698 511
4 500 594 706 504
4 594 593 707 706
4 706 707 704 702
4 504 706 702 505
4 420 419 708 454
4 419 414 709 708
4 708 709 710 711
4 454 708 711 456
4 414 413 712 709
4 413 408 713 712
4 712 713 714 715
4 709 712 715 710
4 408 407 716 713
4 407 402 717 716
4 716 717 718 719
4 713 716 719 714
4 402 401 720 717
4 401 396 721 720
4 720 721 722 723
4 717 720 723 718
4 396 395 724 721
4 395 390 725 724
4 724 725 726 727
4 721 724 727 722
4 390 389 728 725
4 389 384 729 728
4 728 729 730 731
4 725 728 731 726
4 384 383 732 729
4 383 378 733 732
4 732 733 734 735
4 729 732 735 730
4 378 377 736 733
4 377 47 45 736
4 736 45 41 737
4 733 736 737 734
4 734 737 738 739
4 737 41 39 738
4 738 39 35 740
4 739 738 740 741
4 741 740 742 743
4 740 35 33 742
4 742 33 29 744
4 743 742 744 745
4 745 744 746 747
4 744 29 27 746
4 746 27 23 748
4 747 746 748 749
4 749 748 750 751
4 748 23 21 750
4 750 21 17 752
4 751 750 752 753
4 753 752 754 755
4 752 17 15 754
4 754 15 11 756
4 755 754 756 757
4 757 756 758 759
4 756 11 9 758
4 758 9 4 760
4 759 758 760 761
4 761 760 762 763
4 760 4 1 762
4 762 1 0 631
4 763 762 631 627
4 764 765 766 767
4 765 761 763 766
4 766 763 627 625
4 767 766 625 621
4 768 769 770 771
4 769 764 767 770
4 770 767 621 619
4 771 770 619 615
4 772 773 774 775
4 773 768 771 774
4 774 771 615 613
4 775 774 613 609
4 776 777 778 779
4 777 772 775 778
4 778 775 609 607
4 779 778 607 603
4 780 781 782 783
4 781 776 779 782
4 782 779 603 601
4 783 782 601 597
4 784 785 786 787
4 785 780 783 786
4 786 783 597 595
4 787 786 595 591
4 492 788 789 496
4 788 784 787 789
4 789 787 591 589
4 496 789 589 498
4 486 790 791 490
4 790 792 793 791
4 791 793 784 788
4 490 791 788 492
4 480 794 795 484
4 794 796 797 795
4 795 797 792 790
4 484 795 790 486
4 474 798 799 478
4 798 800 801 799
4 799 801 796 794
4 478 799 794 480
4 468 802 803 472
4 802 804 805 803
4 803 805 800 798
4 472 803 798 474
4 462 806 807 466
4 806 808 809 807
4 807 809 804 802
4 466 807 802 468
4 456 711 810 460
4 711 710 811 810
4 810 811 808 806
4 460 810 806 462
